<svg width="84" height="62" viewBox="0 0 84 62" fill="none" xmlns="http://www.w3.org/2000/svg">
<path fill-rule="evenodd" clip-rule="evenodd" d="M58.5723 55.6857C58.573 55.484 58.5738 55.2831 58.5746 55.0831C58.5738 55.2845 58.573 55.4869 58.5723 55.69L58.5723 55.6857ZM58.4062 61.303C58.411 61.3026 58.4166 61.302 58.4235 61.3014C58.4212 61.3016 58.4191 61.3018 58.4171 61.302C58.413 61.3024 58.4094 61.3027 58.4062 61.303Z" fill="black"/>
<path fill-rule="evenodd" clip-rule="evenodd" d="M63.1483 0.878217C63.3702 0.919977 63.5951 0.962302 63.8057 0.986525L64.208 1.08398C71.169 2.989 76.142 6.68411 79.9126 13.2552C82.5092 17.7809 83.8603 24.5523 82.9473 29.7824C82.9155 29.9791 82.8843 30.1783 82.8529 30.3783C82.7841 30.8173 82.7147 31.2603 82.6377 31.6894C82.2146 33.4268 81.9321 34.5197 81.2708 36.1871C79.2191 41.2551 75.6875 45.5001 71.1905 48.3037C68.5376 49.9603 66.4289 50.6915 63.4762 51.416C63.4497 51.8827 63.4442 52.3332 63.4388 52.7789C63.4339 53.183 63.429 53.5835 63.4086 53.9882L63.2557 54.1525C62.2275 54.1755 61.0984 54.1485 60.0035 54.1223C59.5187 54.1107 59.0391 54.0993 58.5795 54.0924C58.5762 54.6153 58.5742 55.1479 58.5723 55.6857L58.5723 55.69C58.5655 57.5595 58.5585 59.4921 58.4945 61.2966C58.4565 61.2984 58.4331 61.3005 58.4171 61.302C58.4007 61.3035 58.3922 61.3043 58.3838 61.3032C58.3746 61.3021 58.3656 61.2987 58.3467 61.2915C58.3366 61.2877 58.3236 61.2828 58.3062 61.2766C57.0618 60.5489 55.7439 59.7113 54.4441 58.8853C53.6542 58.3834 52.871 57.8856 52.1152 57.4195C51.0238 58.0375 49.9354 58.692 48.8454 59.3475C47.8078 59.9715 46.7682 60.5967 45.7231 61.1922L45.8246 51.7233C45.4762 51.7802 44.2335 51.7569 43.5574 51.7442C43.4274 51.7417 43.3184 51.7397 43.2407 51.7387L38.2017 51.673L3.0971 51.2774C2.92694 51.2756 2.71164 51.2757 2.47251 51.2757C1.63508 51.276 0.505509 51.2764 5.91345e-06 51.1979L0.0473832 47.3402C0.422757 47.2787 1.77403 47.3047 2.56369 47.3199C2.74357 47.3234 2.89439 47.3263 2.9978 47.3274L16.1177 47.4785L19.8085 47.5146L38.2235 47.7335L43.3701 47.7861C43.4626 47.7871 43.5911 47.7873 43.742 47.7876C44.413 47.7891 45.5252 47.7914 45.8659 47.8557C45.8962 46.6152 45.9073 45.3525 45.9183 44.0962C45.9237 43.4799 45.9292 42.8644 45.9368 42.2545C42.5166 42.1279 38.868 42.1129 35.2898 42.0981L35.288 42.0981C33.6156 42.0913 31.9586 42.0844 30.3475 42.0663L0.107859 41.7239L0.154755 37.8025L51.4099 38.3838C51.9171 38.3894 52.4245 38.3946 52.9318 38.3998C54.8436 38.4194 56.7568 38.439 58.6674 38.4815C59.5234 38.501 60.368 39.1596 60.5149 40.0713C60.5928 40.5799 60.4734 41.1004 60.1844 41.5166C59.7606 42.1362 59.3249 42.2972 58.6504 42.3964L58.5904 47.9716C60.52 47.9607 62.1914 47.2791 63.5932 45.8707C64.9984 44.4809 65.8044 42.546 65.824 40.5161C65.8492 38.499 65.1001 36.5576 63.7468 35.1342C61.5883 32.8289 59.3134 32.8321 56.6049 32.836C56.2659 32.8364 55.92 32.8369 55.5668 32.8329L24.9554 32.484L23.9908 32.467L22.1321 32.445C20.3635 32.472 0.68698 32.303 0.378419 32.1664L0.334849 32.0276L0.505063 31.696L1.95534 29.1224L2.57236 28.0311L2.68106 27.8474C4.57279 24.3647 6.54623 20.8996 8.51995 17.4341C10.3908 14.1491 12.262 10.8637 14.064 7.56242L14.1182 7.53686L14.1506 7.34431L14.278 7.21835C15.0585 5.69599 16.0924 3.8979 17.0634 2.20931C17.507 1.43779 17.9375 0.688999 18.3247 -6.42732e-05L20.1226 0.00607367L20.3995 0.0142386L33.9217 0.173086C34.6727 0.181575 35.4344 0.194218 36.1995 0.20692C37.7984 0.233461 39.4125 0.260256 40.9774 0.249925L43.7535 0.286055L54.2388 0.403481C54.7419 0.409296 55.2467 0.411445 55.7524 0.413598C58.0946 0.423568 60.4558 0.43362 62.7601 0.808385C62.886 0.828865 63.0166 0.853441 63.1483 0.878217ZM6.67469 28.4L18.3414 7.62865L18.5087 7.34081L20.1023 4.50315L20.4369 3.92335L36.19 4.10778C37.0158 4.11701 37.8647 4.13183 38.7222 4.1468C40.694 4.18122 42.7113 4.21643 44.5972 4.18634C46.5074 4.24651 48.434 4.25642 50.3585 4.26632C51.8672 4.27407 53.3746 4.28183 54.8719 4.31378C55.3477 4.32394 55.862 4.3275 56.4 4.33123C58.8181 4.34799 61.7157 4.36807 63.7564 5.00517L64.0455 5.07741C74.5267 8.09862 80.7883 18.3277 79.2408 29.6492C79.0573 30.6356 78.8631 31.5083 78.6337 32.4837C78.5072 32.8292 78.4006 33.1432 78.2978 33.4462C78.0756 34.1005 77.8707 34.7041 77.5215 35.4619C75.4116 40.0402 72.5765 43.0011 68.447 45.4671C70.3757 40.6251 69.7538 35.9821 66.2182 32.1829C65.5683 31.5489 65.0481 31.1018 64.2865 30.6362L64.2415 30.6013C63.6515 30.1831 62.8966 29.8735 62.2132 29.5932C62.1465 29.5659 62.0805 29.5388 62.0154 29.5119L60.99 29.2385C59.4957 28.8997 56.2237 28.8974 53.9271 28.8958C53.4158 28.8954 52.9529 28.8951 52.5687 28.8911L10.5623 28.4117C10.3171 28.4087 10.0542 28.4034 9.78175 28.3976L9.59803 28.3937C8.61483 28.3725 7.52836 28.349 6.67469 28.4Z" fill="black"/>
<path fill-rule="evenodd" clip-rule="evenodd" d="M23.4273 9.56044L55.6061 9.92291C55.9597 9.92698 56.3015 9.92904 56.6341 9.93104C59.1235 9.94604 61.0977 9.95794 63.682 10.7851L64.0948 10.9504C67.9257 12.4127 71.045 15.4246 72.7642 19.3208C74.2573 22.714 74.4787 25.925 73.866 29.5603L73.6552 30.3901C73.5281 30.9076 73.4562 31.1797 73.2684 31.6748L72.9839 32.509C72.6662 31.8432 72.3469 31.3291 71.9729 30.7272C71.9386 30.6719 71.9037 30.6159 71.8684 30.5589C71.3353 29.8216 70.8919 29.2274 70.2723 28.5534C68.1214 26.2088 65.3764 24.567 62.3638 23.8238C60.3429 23.338 58.0225 23.3303 55.8528 23.323C55.461 23.3217 55.0742 23.3204 54.6949 23.3163L15.9481 22.8745C17.5697 19.8615 19.3262 16.7773 21.0614 13.7306C21.8596 12.3291 22.6533 10.9355 23.4273 9.56044Z" fill="black"/>
</svg>
