<svg width="21" height="20" viewBox="0 0 21 20" fill="none" xmlns="http://www.w3.org/2000/svg">
<path d="M4.29108 14.8955C5.12956 14.2543 6.0667 13.7487 7.10247 13.3788C8.13825 13.0089 9.22335 12.8239 10.3578 12.8239C11.4922 12.8239 12.5773 13.0089 13.6131 13.3788C14.6489 13.7487 15.586 14.2543 16.4245 14.8955C16.9999 14.2214 17.4479 13.4569 17.7685 12.602C18.0891 11.747 18.2494 10.8346 18.2494 9.86455C18.2494 7.67791 17.4808 5.81597 15.9436 4.27875C14.4064 2.74152 12.5444 1.97291 10.3578 1.97291C8.17113 1.97291 6.3092 2.74152 4.77197 4.27875C3.23475 5.81597 2.46614 7.67791 2.46614 9.86455C2.46614 10.8346 2.62643 11.747 2.94703 12.602C3.26763 13.4569 3.71565 14.2214 4.29108 14.8955ZM10.3578 10.851C9.38776 10.851 8.56983 10.5181 7.90397 9.85222C7.23811 9.18636 6.90518 8.36843 6.90518 7.39841C6.90518 6.4284 7.23811 5.61046 7.90397 4.94461C8.56983 4.27875 9.38776 3.94582 10.3578 3.94582C11.3278 3.94582 12.1457 4.27875 12.8116 4.94461C13.4774 5.61046 13.8104 6.4284 13.8104 7.39841C13.8104 8.36843 13.4774 9.18636 12.8116 9.85222C12.1457 10.5181 11.3278 10.851 10.3578 10.851ZM10.3578 19.7291C8.99318 19.7291 7.71079 19.4702 6.5106 18.9523C5.31041 18.4344 4.26642 17.7315 3.37861 16.8437C2.4908 15.9559 1.78795 14.9119 1.27006 13.7117C0.75217 12.5115 0.493225 11.2291 0.493225 9.86455C0.493225 8.49995 0.75217 7.21756 1.27006 6.01738C1.78795 4.81719 2.4908 3.77319 3.37861 2.88538C4.26642 1.99757 5.31041 1.29472 6.5106 0.776833C7.71079 0.258945 8.99318 0 10.3578 0C11.7224 0 13.0048 0.258945 14.205 0.776833C15.4051 1.29472 16.4491 1.99757 17.3369 2.88538C18.2248 3.77319 18.9276 4.81719 19.4455 6.01738C19.9634 7.21756 20.2223 8.49995 20.2223 9.86455C20.2223 11.2291 19.9634 12.5115 19.4455 13.7117C18.9276 14.9119 18.2248 15.9559 17.3369 16.8437C16.4491 17.7315 15.4051 18.4344 14.205 18.9523C13.0048 19.4702 11.7224 19.7291 10.3578 19.7291ZM10.3578 17.7562C11.2291 17.7562 12.0512 17.6288 12.8239 17.3739C13.5966 17.1191 14.3036 16.7533 14.9448 16.2765C14.3036 15.7997 13.5966 15.4339 12.8239 15.1791C12.0512 14.9242 11.2291 14.7968 10.3578 14.7968C9.48641 14.7968 8.66436 14.9242 7.89164 15.1791C7.11892 15.4339 6.41196 15.7997 5.77076 16.2765C6.41196 16.7533 7.11892 17.1191 7.89164 17.3739C8.66436 17.6288 9.48641 17.7562 10.3578 17.7562ZM10.3578 8.8781C10.7852 8.8781 11.1387 8.73835 11.4182 8.45885C11.6977 8.17936 11.8375 7.82588 11.8375 7.39841C11.8375 6.97095 11.6977 6.61747 11.4182 6.33797C11.1387 6.05848 10.7852 5.91873 10.3578 5.91873C9.93031 5.91873 9.57683 6.05848 9.29734 6.33797C9.01784 6.61747 8.87809 6.97095 8.87809 7.39841C8.87809 7.82588 9.01784 8.17936 9.29734 8.45885C9.57683 8.73835 9.93031 8.8781 10.3578 8.8781Z" fill="black"/>
</svg>
