<svg width="23" height="23" viewBox="0 0 23 23" fill="none" xmlns="http://www.w3.org/2000/svg">
<path d="M0 5.66826V0H5.66826V2.2673H2.2673V5.66826H0ZM0 22.673V17.0048H2.2673V20.4057H5.66826V22.673H0ZM17.0048 22.673V20.4057H20.4057V17.0048H22.673V22.673H17.0048ZM20.4057 5.66826V2.2673H17.0048V0H22.673V5.66826H20.4057ZM17.5716 17.5716H19.2721V19.2721H17.5716V17.5716ZM17.5716 14.1706H19.2721V15.8711H17.5716V14.1706ZM15.8711 15.8711H17.5716V17.5716H15.8711V15.8711ZM14.1706 17.5716H15.8711V19.2721H14.1706V17.5716ZM12.4702 15.8711H14.1706V17.5716H12.4702V15.8711ZM15.8711 12.4702H17.5716V14.1706H15.8711V12.4702ZM14.1706 14.1706H15.8711V15.8711H14.1706V14.1706ZM12.4702 12.4702H14.1706V14.1706H12.4702V12.4702ZM19.2721 3.40095V10.2029H12.4702V3.40095H19.2721ZM10.2029 12.4702V19.2721H3.40095V12.4702H10.2029ZM10.2029 3.40095V10.2029H3.40095V3.40095H10.2029ZM8.50239 17.5716V14.1706H5.10143V17.5716H8.50239ZM8.50239 8.50239V5.10143H5.10143V8.50239H8.50239ZM17.5716 8.50239V5.10143H14.1706V8.50239H17.5716Z" fill="white"/>
</svg>
