<svg width="539" height="398" viewBox="0 0 539 398" fill="none" xmlns="http://www.w3.org/2000/svg">
<mask id="path-1-inside-1_1_400" fill="white">
<path fill-rule="evenodd" clip-rule="evenodd" d="M380.716 360.351C380.706 359.035 380.696 357.724 380.686 356.42C380.696 357.734 380.706 359.054 380.716 360.379L380.716 360.351ZM380.053 397.002C380.084 396.999 380.121 396.995 380.165 396.99C380.15 396.992 380.137 396.993 380.124 396.995C380.097 396.997 380.074 397 380.053 397.002Z"/>
<path fill-rule="evenodd" clip-rule="evenodd" d="M406.376 2.52741C407.821 2.78329 409.285 3.04264 410.654 3.18498L413.273 3.79071C458.621 15.6987 491.19 39.4304 516.164 82.0101C533.362 111.336 542.638 155.402 537.095 189.584C536.904 190.869 536.716 192.17 536.527 193.477C536.113 196.346 535.695 199.24 535.226 202.045C532.607 213.408 530.853 220.558 526.682 231.483C513.733 264.691 491.112 292.642 462.115 311.263C445.009 322.266 431.369 327.192 412.247 332.137C412.109 335.183 412.107 338.122 412.105 341.029C412.103 343.665 412.101 346.278 411.998 348.919L411.018 350.002C404.342 350.228 397.007 350.136 389.895 350.047C386.746 350.008 383.63 349.968 380.644 349.958C380.662 353.369 380.689 356.843 380.716 360.351L380.716 360.379C380.811 372.573 380.908 385.179 380.626 396.954C380.38 396.968 380.228 396.984 380.124 396.995C380.018 397.005 379.962 397.011 379.908 397.005C379.848 396.998 379.789 396.977 379.666 396.931C379.6 396.907 379.515 396.876 379.402 396.837C371.267 392.183 362.646 386.818 354.143 381.527C348.976 378.312 343.853 375.124 338.91 372.139C331.868 376.252 324.849 380.601 317.818 384.958C311.126 389.105 304.421 393.26 297.677 397.222L297.636 335.453C295.377 335.85 287.305 335.791 282.914 335.758C282.07 335.752 281.361 335.747 280.857 335.746L248.128 335.692L20.1201 335.722C19.0149 335.723 17.6167 335.739 16.0637 335.758C10.6253 335.822 3.28958 335.908 0.000912385 335.434L0.0230118 310.268C2.45623 309.839 11.2336 309.908 16.363 309.949C17.5315 309.958 18.5112 309.966 19.1828 309.966L104.398 309.975L128.37 309.936L247.977 309.995L281.405 309.956C282.005 309.955 282.84 309.947 283.819 309.938C288.177 309.897 295.4 309.83 297.618 310.224C297.723 302.13 297.701 293.894 297.68 285.699C297.67 281.679 297.659 277.663 297.664 273.685C275.443 273.113 251.746 273.286 228.508 273.457L228.496 273.457C217.635 273.536 206.873 273.615 196.409 273.616L0 273.631L0.0142727 248.051L332.921 248.031C336.215 248.03 339.511 248.026 342.806 248.022C355.223 248.008 367.649 247.994 380.06 248.129C385.621 248.192 391.154 252.425 392.176 258.361C392.719 261.672 391.983 265.077 390.137 267.813C387.43 271.885 384.613 272.968 380.239 273.665L380.262 310.034C392.793 309.819 403.597 305.249 412.597 295.958C421.619 286.79 426.711 274.109 426.688 260.868C426.701 247.709 421.693 235.102 412.799 225.918C398.611 211.042 383.837 211.232 366.248 211.459C364.046 211.487 361.8 211.516 359.506 211.516H160.682L154.416 211.477L142.344 211.472C130.86 211.78 3.06356 212.14 1.04957 211.272L0.756342 210.37L1.83721 208.195L11.0652 191.3L14.9914 184.137L15.6838 182.93C27.7113 160.073 40.2708 137.326 52.8321 114.575C64.739 93.0096 76.6474 71.4411 88.1057 49.7746L88.456 49.6039L88.6517 48.3456L89.4702 47.5146C94.4261 37.5269 101.007 25.722 107.188 14.6359C110.012 9.57062 112.753 4.65462 115.216 0.131408L126.892 0.0377751L128.691 0.0704422L216.519 0.101166C221.398 0.100692 226.345 0.126527 231.315 0.152486C241.7 0.20673 252.185 0.261487 262.346 0.0777573L280.378 0.107018L348.481 0.0933594C351.749 0.093879 355.027 0.0703609 358.311 0.046804C373.523 -0.0623025 388.858 -0.17229 403.85 2.1008C404.67 2.22502 405.52 2.3756 406.376 2.52741ZM41.6603 186.238L115.889 49.8886L116.954 47.9987L127.093 29.3716L129.223 25.565L231.542 25.5967C236.905 25.5955 242.419 25.629 247.989 25.6629C260.797 25.7408 273.9 25.8205 286.146 25.484C298.556 25.7344 311.068 25.6558 323.567 25.5773C333.366 25.5157 343.155 25.4542 352.881 25.5513C355.972 25.5822 359.312 25.5672 362.807 25.5515C378.512 25.481 397.331 25.3965 410.631 29.4003L412.514 29.85C480.805 48.7766 522.226 115.03 513.015 188.99C511.896 195.438 510.7 201.144 509.282 207.523C508.486 209.786 507.817 211.842 507.172 213.826C505.777 218.111 504.491 222.063 502.28 227.032C488.916 257.051 470.724 276.574 444.088 292.966C456.255 261.24 451.873 231.002 428.63 206.485C424.363 202.398 420.952 199.52 415.971 196.54L415.676 196.316C411.813 193.632 406.888 191.669 402.429 189.891C401.994 189.718 401.564 189.546 401.139 189.376L394.459 187.669C384.73 185.57 363.48 185.798 348.566 185.958C345.245 185.994 342.239 186.026 339.743 186.029L66.9085 186.025C65.3155 186.023 63.6082 186.009 61.8381 185.991L60.6447 185.979C54.258 185.914 47.2005 185.841 41.6603 186.238Z"/>
<path fill-rule="evenodd" clip-rule="evenodd" d="M149.061 62.1107L358.065 62.0824C360.362 62.0826 362.582 62.0706 364.742 62.059C380.91 61.9717 393.731 61.9026 410.576 67.1058L413.269 68.1529C438.256 77.4058 458.736 96.8196 470.19 122.105C480.138 144.126 481.813 165.053 478.103 188.81L476.796 194.238C476.008 197.623 475.562 199.403 474.379 202.646L472.593 208.109C470.48 203.789 468.368 200.46 465.895 196.562C465.668 196.204 465.438 195.841 465.204 195.472C461.687 190.702 458.764 186.86 454.69 182.51C440.548 167.377 422.6 156.872 402.98 152.249C389.82 149.23 374.75 149.352 360.659 149.467C358.115 149.487 355.603 149.508 353.139 149.509L101.475 149.508C111.783 129.735 122.962 109.488 134.005 89.4867C139.085 80.2861 144.137 71.137 149.061 62.1107Z"/>
</mask>
<path d="M61.8381 185.991L61.8431 185.491L61.8381 185.991ZM60.6447 185.979L60.6396 186.479C61.0384 186.483 61.44 186.487 61.8332 186.491L61.8381 185.991L61.8431 185.491C61.45 185.487 61.0486 185.483 60.6498 185.479L60.6447 185.979ZM387.537 350.018L387.531 350.518C388.313 350.527 389.099 350.537 389.888 350.547L389.895 350.047L389.901 349.547C389.112 349.537 388.325 349.527 387.543 349.518L387.537 350.018ZM380.716 360.379L381.216 360.375L381.216 360.346L380.716 360.351L380.216 360.355L380.216 360.383L380.716 360.379ZM61.8381 185.991L61.8332 186.491C61.8809 186.492 61.9195 186.485 61.9429 186.481C61.9549 186.479 61.9648 186.476 61.9712 186.475C61.9772 186.473 61.9826 186.472 61.9834 186.471C61.9856 186.471 61.9832 186.472 61.9801 186.472C61.9767 186.473 61.9697 186.475 61.9607 186.477C61.9433 186.48 61.9106 186.485 61.8687 186.485L61.8737 185.985L61.8786 185.485C61.8309 185.484 61.7923 185.491 61.7689 185.495C61.7569 185.497 61.747 185.5 61.7406 185.501C61.7346 185.503 61.7292 185.504 61.7284 185.505C61.7262 185.505 61.7287 185.504 61.7317 185.504C61.7352 185.503 61.7421 185.501 61.7512 185.499C61.7686 185.496 61.8013 185.491 61.8431 185.491L61.8381 185.991ZM60.6447 185.979L60.6345 186.979H60.6346L60.6447 185.979ZM61.8381 185.991L61.828 186.991H61.8282L61.8381 185.991ZM389.895 350.047L389.907 349.047V349.047L389.895 350.047ZM380.686 356.42L381.686 356.413L379.686 356.427L380.686 356.42ZM380.716 360.379L379.716 360.387V360.387L380.716 360.379ZM380.053 397.002L379.959 396.006L380.146 397.997L380.053 397.002ZM380.165 396.99L380.266 397.985L380.065 395.995L380.165 396.99ZM380.124 396.995L380.021 396H380.021L380.124 396.995ZM406.376 2.52741L406.202 3.51208V3.51208L406.376 2.52741ZM410.654 3.18498L410.879 2.21069L410.819 2.19674L410.757 2.19034L410.654 3.18498ZM413.273 3.79071L413.527 2.8235L413.513 2.81975L413.499 2.81642L413.273 3.79071ZM516.164 82.0101L517.026 81.5042V81.5042L516.164 82.0101ZM537.095 189.584L536.108 189.424L536.106 189.436L537.095 189.584ZM536.527 193.477L537.517 193.62V193.62L536.527 193.477ZM535.226 202.045L536.201 202.269L536.208 202.24L536.213 202.209L535.226 202.045ZM526.682 231.483L527.614 231.846L527.617 231.84L526.682 231.483ZM462.115 311.263L461.575 310.421L461.574 310.422L462.115 311.263ZM412.247 332.137L411.996 331.169L411.281 331.354L411.248 332.092L412.247 332.137ZM412.105 341.029L411.105 341.028V341.028L412.105 341.029ZM411.998 348.919L412.739 349.59L412.983 349.321L412.997 348.958L411.998 348.919ZM411.018 350.002L411.052 351.001L411.475 350.987L411.759 350.673L411.018 350.002ZM380.644 349.958L380.648 348.958L379.639 348.954L379.644 349.963L380.644 349.958ZM380.626 396.954L380.684 397.952L381.604 397.899L381.626 396.978L380.626 396.954ZM379.908 397.005L379.794 397.998H379.794L379.908 397.005ZM379.666 396.931L379.321 397.87L379.321 397.87L379.666 396.931ZM379.402 396.837L378.905 397.705L378.986 397.751L379.075 397.782L379.402 396.837ZM354.143 381.527L353.615 382.376V382.376L354.143 381.527ZM338.91 372.139L339.427 371.283L338.919 370.976L338.406 371.276L338.91 372.139ZM317.818 384.958L317.291 384.108V384.108L317.818 384.958ZM297.677 397.222L296.677 397.223L296.679 398.969L298.184 398.084L297.677 397.222ZM297.636 335.453L298.636 335.453L298.635 334.263L297.463 334.469L297.636 335.453ZM282.914 335.758L282.906 336.758V336.758L282.914 335.758ZM280.857 335.746L280.855 336.746H280.855L280.857 335.746ZM248.128 335.692L248.129 334.692H248.127L248.128 335.692ZM20.1201 335.722L20.1199 334.722H20.1191L20.1201 335.722ZM16.0637 335.758L16.0755 336.758H16.0755L16.0637 335.758ZM0.000912385 335.434L-0.999087 335.433L-0.999848 336.3L-0.14181 336.424L0.000912385 335.434ZM0.0230118 310.268L-0.150611 309.283L-0.976252 309.429L-0.976988 310.267L0.0230118 310.268ZM16.363 309.949L16.3709 308.949H16.3709L16.363 309.949ZM19.1828 309.966L19.1829 308.966H19.1828V309.966ZM104.398 309.975L104.398 310.975H104.4L104.398 309.975ZM128.37 309.936L128.37 308.936H128.368L128.37 309.936ZM247.977 309.995L247.976 310.995H247.978L247.977 309.995ZM281.405 309.956L281.406 310.956H281.406L281.405 309.956ZM283.819 309.938L283.81 308.938V308.938L283.819 309.938ZM297.618 310.224L297.443 311.209L298.602 311.415L298.618 310.237L297.618 310.224ZM297.68 285.699L298.68 285.696V285.696L297.68 285.699ZM297.664 273.685L298.664 273.686L298.665 272.71L297.689 272.685L297.664 273.685ZM228.508 273.457L228.5 272.457H228.5L228.508 273.457ZM228.496 273.457L228.503 274.457H228.504L228.496 273.457ZM196.409 273.616L196.409 274.616H196.409L196.409 273.616ZM0 273.631L-1 273.63L-1.00056 274.631L7.44258e-05 274.631L0 273.631ZM0.0142727 248.051L0.014214 247.051L-0.98517 247.051L-0.985727 248.05L0.0142727 248.051ZM332.921 248.031L332.921 249.031H332.921L332.921 248.031ZM342.806 248.022L342.807 249.022V249.022L342.806 248.022ZM380.06 248.129L380.071 247.129H380.071L380.06 248.129ZM392.176 258.361L393.163 258.199L393.161 258.191L392.176 258.361ZM390.137 267.813L389.308 267.253L389.304 267.259L390.137 267.813ZM380.239 273.665L380.082 272.678L379.239 272.812L379.239 273.666L380.239 273.665ZM380.262 310.034L379.262 310.035L379.263 311.051L380.28 311.034L380.262 310.034ZM412.597 295.958L411.884 295.257L411.878 295.263L412.597 295.958ZM426.688 260.868L425.688 260.867V260.869L426.688 260.868ZM412.799 225.918L412.076 226.609L412.081 226.614L412.799 225.918ZM366.248 211.459L366.235 210.459V210.459L366.248 211.459ZM160.682 211.516L160.676 212.516H160.682V211.516ZM154.416 211.477L154.422 210.477H154.417L154.416 211.477ZM142.344 211.472L142.344 210.472H142.331L142.317 210.473L142.344 211.472ZM1.04957 211.272L0.0985371 211.581L0.238344 212.012L0.653731 212.191L1.04957 211.272ZM0.756342 210.37L-0.139192 209.925L-0.320911 210.291L-0.194694 210.679L0.756342 210.37ZM1.83721 208.195L0.959598 207.715L0.950305 207.732L0.941679 207.75L1.83721 208.195ZM11.0652 191.3L10.1882 190.82L10.1876 190.821L11.0652 191.3ZM14.9914 184.137L14.1241 183.639L14.1192 183.647L14.1145 183.656L14.9914 184.137ZM15.6838 182.93L16.5511 183.428L16.5602 183.412L16.5687 183.396L15.6838 182.93ZM52.8321 114.575L51.9567 114.092V114.092L52.8321 114.575ZM88.1057 49.7746L87.6676 48.8757L87.3743 49.0187L87.2217 49.3071L88.1057 49.7746ZM88.456 49.6039L88.8941 50.5028L89.3639 50.2739L89.4442 49.7575L88.456 49.6039ZM88.6517 48.3456L87.9392 47.6439L87.7131 47.8735L87.6636 48.192L88.6517 48.3456ZM89.4702 47.5146L90.1826 48.2163L90.2949 48.1023L90.366 47.959L89.4702 47.5146ZM107.188 14.6359L106.315 14.1489V14.149L107.188 14.6359ZM115.216 0.131408L115.208 -0.86856L114.619 -0.863839L114.338 -0.346862L115.216 0.131408ZM126.892 0.0377751L126.91 -0.96206L126.897 -0.962298L126.884 -0.962193L126.892 0.0377751ZM128.691 0.0704422L128.673 1.07028L128.682 1.07044L128.691 1.07044L128.691 0.0704422ZM216.519 0.101166L216.519 1.10117H216.519L216.519 0.101166ZM231.315 0.152486L231.32 -0.8475L231.315 0.152486ZM262.346 0.0777573L262.348 -0.922241L262.338 -0.922257L262.328 -0.922079L262.346 0.0777573ZM280.378 0.107018L280.376 1.10702L280.378 1.10702L280.378 0.107018ZM348.481 0.0933594L348.481 -0.906641L348.48 -0.906641L348.481 0.0933594ZM358.311 0.046804L358.319 1.04678V1.04678L358.311 0.046804ZM403.85 2.1008L403.7 3.0895V3.0895L403.85 2.1008ZM41.6603 186.238L40.782 185.76L39.9076 187.366L41.7316 187.235L41.6603 186.238ZM115.889 49.8886L115.018 49.3976L115.014 49.404L115.011 49.4105L115.889 49.8886ZM116.954 47.9987L117.825 48.4897L117.829 48.4833L117.833 48.4768L116.954 47.9987ZM127.093 29.3716L126.221 28.8832L126.215 28.8935L127.093 29.3716ZM129.223 25.565L129.224 24.565L128.637 24.5648L128.351 25.0766L129.223 25.565ZM231.542 25.5967L231.541 26.5967H231.542L231.542 25.5967ZM247.989 25.6629L247.983 26.6629V26.6629L247.989 25.6629ZM286.146 25.484L286.166 24.4842L286.142 24.4837L286.119 24.4844L286.146 25.484ZM323.567 25.5773L323.574 26.5773V26.5773L323.567 25.5773ZM352.881 25.5513L352.891 24.5513V24.5513L352.881 25.5513ZM362.807 25.5515L362.802 24.5515V24.5515L362.807 25.5515ZM410.631 29.4003L410.343 30.3579L410.37 30.3662L410.399 30.373L410.631 29.4003ZM412.514 29.85L412.781 28.8863L412.764 28.8815L412.746 28.8774L412.514 29.85ZM513.015 188.99L514 189.161L514.004 189.138L514.007 189.114L513.015 188.99ZM509.282 207.523L510.225 207.855L510.245 207.799L510.258 207.74L509.282 207.523ZM507.172 213.826L508.123 214.136V214.136L507.172 213.826ZM502.28 227.032L503.193 227.439L503.193 227.438L502.28 227.032ZM444.088 292.966L443.155 292.608L442.097 295.365L444.612 293.817L444.088 292.966ZM428.63 206.485L429.356 205.797L429.339 205.779L429.322 205.762L428.63 206.485ZM415.971 196.54L415.365 197.336L415.41 197.37L415.458 197.398L415.971 196.54ZM415.676 196.316L416.282 195.52L416.265 195.507L416.247 195.495L415.676 196.316ZM402.429 189.891L402.8 188.962V188.962L402.429 189.891ZM401.139 189.376L401.511 188.448L401.45 188.423L401.386 188.407L401.139 189.376ZM394.459 187.669L394.707 186.7L394.689 186.695L394.67 186.691L394.459 187.669ZM348.566 185.958L348.576 186.958V186.958L348.566 185.958ZM339.743 186.029V187.029H339.744L339.743 186.029ZM66.9085 186.025L66.9077 187.025H66.9085L66.9085 186.025ZM358.065 62.0824L358.065 61.0824H358.065L358.065 62.0824ZM149.061 62.1107L149.061 61.1107L148.467 61.1107L148.183 61.6317L149.061 62.1107ZM134.005 89.4867L133.13 89.0033V89.0033L134.005 89.4867ZM101.475 149.508L100.589 149.046L99.8263 150.508H101.475V149.508ZM353.139 149.509V150.509H353.14L353.139 149.509ZM360.659 149.467L360.651 148.467H360.651L360.659 149.467ZM402.98 152.249L403.21 151.275L403.204 151.274L402.98 152.249ZM454.69 182.51L453.959 183.192L453.96 183.193L454.69 182.51ZM465.204 195.472L466.049 194.937L466.03 194.907L466.009 194.879L465.204 195.472ZM465.895 196.562L466.74 196.026V196.026L465.895 196.562ZM472.593 208.109L471.694 208.548L472.777 210.762L473.543 208.419L472.593 208.109ZM474.379 202.646L473.439 202.304L473.434 202.319L473.428 202.335L474.379 202.646ZM476.796 194.238L475.823 194.004L475.822 194.012L476.796 194.238ZM478.103 188.81L479.075 189.044L479.085 189.004L479.091 188.964L478.103 188.81ZM470.19 122.105L471.101 121.693L471.101 121.692L470.19 122.105ZM413.269 68.1529L412.906 69.085L412.914 69.0879L412.921 69.0907L413.269 68.1529ZM410.576 67.1058L410.938 66.1738L410.905 66.1609L410.871 66.1504L410.576 67.1058ZM364.742 62.059L364.736 61.059V61.059L364.742 62.059ZM380.716 360.351L381.716 360.343C381.706 359.027 381.696 357.717 381.686 356.413L380.686 356.42L379.686 356.427C379.696 357.732 379.706 359.043 379.716 360.358L380.716 360.351ZM380.686 356.42L379.686 356.427C379.696 357.741 379.706 359.062 379.716 360.387L380.716 360.379L381.716 360.371C381.706 359.046 381.696 357.726 381.686 356.413L380.686 356.42ZM380.053 397.002L380.146 397.997C380.183 397.994 380.229 397.989 380.266 397.985L380.165 396.99L380.064 395.995C380.012 396.001 379.986 396.004 379.959 396.006L380.053 397.002ZM380.165 396.99L380.065 395.995C380.049 395.997 380.034 395.998 380.022 396L380.124 396.995L380.225 397.989C380.24 397.988 380.252 397.987 380.265 397.985L380.165 396.99ZM380.124 396.995L380.021 396C379.993 396.003 379.975 396.005 379.959 396.006L380.053 397.002L380.147 397.997C380.173 397.995 380.202 397.992 380.227 397.989L380.124 396.995ZM406.376 2.52741L406.202 3.51208C407.638 3.76658 409.139 4.03289 410.551 4.17962L410.654 3.18498L410.757 2.19034C409.43 2.05239 408.003 1.80001 406.551 1.54275L406.376 2.52741ZM410.654 3.18498L410.429 4.15927L413.048 4.765L413.273 3.79071L413.499 2.81642L410.879 2.21069L410.654 3.18498ZM413.273 3.79071L413.019 4.75792C458.116 16.5999 490.464 40.1687 515.301 82.516L516.164 82.0101L517.026 81.5042C491.917 38.692 459.126 14.7974 413.527 2.8235L413.273 3.79071ZM516.164 82.0101L515.301 82.5159C532.39 111.656 541.611 155.488 536.108 189.424L537.095 189.584L538.083 189.744C543.665 155.316 534.334 111.016 517.026 81.5042L516.164 82.0101ZM537.095 189.584L536.106 189.436C535.914 190.724 535.726 192.028 535.537 193.334L536.527 193.477L537.517 193.62C537.706 192.313 537.893 191.014 538.084 189.731L537.095 189.584ZM536.527 193.477L535.537 193.334C535.123 196.205 534.706 199.088 534.24 201.88L535.226 202.045L536.213 202.209C536.683 199.392 537.103 196.487 537.517 193.62L536.527 193.477ZM535.226 202.045L534.252 201.82C531.636 213.171 529.894 220.267 525.748 231.126L526.682 231.483L527.617 231.84C531.812 220.849 533.579 213.646 536.201 202.269L535.226 202.045ZM526.682 231.483L525.751 231.12C512.875 264.139 490.388 291.919 461.575 310.421L462.115 311.263L462.656 312.104C491.837 293.365 514.591 265.244 527.614 231.846L526.682 231.483ZM462.115 311.263L461.574 310.422C444.585 321.349 431.053 326.24 411.996 331.169L412.247 332.137L412.497 333.105C431.685 328.143 445.433 323.182 462.656 312.104L462.115 311.263ZM412.247 332.137L411.248 332.092C411.109 335.163 411.107 338.124 411.105 341.028L412.105 341.029L413.105 341.03C413.107 338.119 413.109 335.202 413.246 332.182L412.247 332.137ZM412.105 341.029L411.105 341.028C411.103 343.667 411.101 346.261 410.999 348.88L411.998 348.919L412.997 348.958C413.101 346.295 413.103 343.663 413.105 341.03L412.105 341.029ZM411.998 348.919L411.257 348.248L410.276 349.331L411.018 350.002L411.759 350.673L412.739 349.59L411.998 348.919ZM411.018 350.002L410.984 349.002C404.335 349.228 397.025 349.136 389.907 349.047L389.895 350.047L389.882 351.047C396.989 351.136 404.348 351.229 411.052 351.001L411.018 350.002ZM389.895 350.047L389.907 349.047C386.759 349.008 383.639 348.969 380.648 348.958L380.644 349.958L380.641 350.958C383.621 350.968 386.732 351.007 389.882 351.047L389.895 350.047ZM380.644 349.958L379.644 349.963C379.662 353.375 379.689 356.851 379.716 360.358L380.716 360.351L381.716 360.343C381.689 356.835 381.662 353.362 381.644 349.953L380.644 349.958ZM380.716 360.379L379.716 360.387C379.811 372.584 379.908 385.173 379.626 396.93L380.626 396.954L381.626 396.978C381.908 385.184 381.811 372.562 381.716 360.371L380.716 360.379ZM380.626 396.954L380.568 395.956C380.3 395.971 380.132 395.988 380.021 396L380.124 396.995L380.226 397.989C380.323 397.979 380.459 397.965 380.684 397.952L380.626 396.954ZM380.124 396.995L380.021 396C380.008 396.001 379.996 396.002 379.985 396.003C379.975 396.005 379.966 396.005 379.959 396.006C379.951 396.007 379.946 396.007 379.942 396.008C379.938 396.008 379.937 396.008 379.937 396.008C379.937 396.008 379.939 396.008 379.943 396.008C379.947 396.008 379.953 396.007 379.961 396.008C379.969 396.008 379.978 396.008 379.988 396.009C379.999 396.009 380.01 396.01 380.021 396.011L379.908 397.005L379.794 397.998C379.981 398.02 380.161 397.996 380.226 397.989L380.124 396.995ZM379.908 397.005L380.022 396.011C380.034 396.013 380.047 396.015 380.058 396.017C380.07 396.019 380.08 396.021 380.088 396.023C380.105 396.027 380.114 396.03 380.112 396.029C380.111 396.029 380.109 396.028 380.104 396.026C380.099 396.025 380.092 396.022 380.083 396.019C380.074 396.016 380.064 396.012 380.052 396.008C380.039 396.003 380.026 395.998 380.01 395.993L379.666 396.931L379.321 397.87C379.398 397.898 379.587 397.975 379.794 397.998L379.908 397.005ZM379.666 396.931L380.01 395.993C379.943 395.968 379.851 395.934 379.729 395.892L379.402 396.837L379.075 397.782C379.179 397.818 379.256 397.846 379.321 397.87L379.666 396.931ZM379.402 396.837L379.898 395.969C371.782 391.326 363.177 385.971 354.671 380.678L354.143 381.527L353.615 382.376C362.114 387.665 370.751 393.04 378.905 397.705L379.402 396.837ZM354.143 381.527L354.671 380.678C349.506 377.464 344.377 374.272 339.427 371.283L338.91 372.139L338.393 372.995C343.33 375.976 348.447 379.16 353.615 382.376L354.143 381.527ZM338.91 372.139L338.406 371.276C331.351 375.396 324.32 379.753 317.291 384.108L317.818 384.958L318.345 385.808C325.377 381.45 332.386 377.107 339.414 373.003L338.91 372.139ZM317.818 384.958L317.291 384.108C310.598 388.256 303.902 392.405 297.171 396.36L297.677 397.222L298.184 398.084C304.939 394.115 311.655 389.954 318.345 385.808L317.818 384.958ZM297.677 397.222L298.677 397.221L298.636 335.453L297.636 335.453L296.636 335.454L296.677 397.223L297.677 397.222ZM297.636 335.453L297.463 334.469C296.432 334.65 293.944 334.736 291.064 334.767C288.225 334.797 285.118 334.775 282.921 334.758L282.914 335.758L282.906 336.758C285.101 336.774 288.226 336.798 291.085 336.767C293.904 336.736 296.581 336.654 297.809 336.438L297.636 335.453ZM282.914 335.758L282.921 334.758C282.078 334.752 281.367 334.747 280.858 334.746L280.857 335.746L280.855 336.746C281.356 336.747 282.061 336.752 282.906 336.758L282.914 335.758ZM280.857 335.746L280.858 334.746L248.129 334.692L248.128 335.692L248.126 336.692L280.855 336.746L280.857 335.746ZM248.128 335.692L248.127 334.692L20.1199 334.722L20.1201 335.722L20.1202 336.722L248.128 336.692L248.128 335.692ZM20.1201 335.722L20.1191 334.722C19.0073 334.723 17.6029 334.739 16.0519 334.758L16.0637 335.758L16.0755 336.758C17.6304 336.739 19.0225 336.723 20.121 336.722L20.1201 335.722ZM16.0637 335.758L16.0519 334.758C10.5643 334.822 3.33393 334.904 0.143635 334.444L0.000912385 335.434L-0.14181 336.424C3.24523 336.912 10.6862 336.821 16.0755 336.758L16.0637 335.758ZM0.000912385 335.434L1.00091 335.435L1.02301 310.269L0.0230118 310.268L-0.976988 310.267L-0.999087 335.433L0.000912385 335.434ZM0.0230118 310.268L0.196635 311.253C1.31356 311.056 4.02098 310.964 7.19192 310.932C10.3212 310.901 13.7889 310.928 16.3552 310.949L16.363 309.949L16.3709 308.949C13.8078 308.928 10.3221 308.901 7.17201 308.932C4.06358 308.963 1.16568 309.051 -0.150611 309.283L0.0230118 310.268ZM16.363 309.949L16.3551 310.949C17.5217 310.958 18.5062 310.966 19.1828 310.966V309.966V308.966C18.5161 308.966 17.5412 308.958 16.3709 308.949L16.363 309.949ZM19.1828 309.966L19.1827 310.966L104.398 310.975L104.398 309.975L104.398 308.975L19.1829 308.966L19.1828 309.966ZM104.398 309.975L104.4 310.975L128.371 310.936L128.37 309.936L128.368 308.936L104.396 308.975L104.398 309.975ZM128.37 309.936L128.369 310.936L247.976 310.995L247.977 309.995L247.977 308.995L128.37 308.936L128.37 309.936ZM247.977 309.995L247.978 310.995L281.406 310.956L281.405 309.956L281.403 308.956L247.976 308.995L247.977 309.995ZM281.405 309.956L281.406 310.956C282.012 310.955 282.851 310.947 283.829 310.938L283.819 309.938L283.81 308.938C282.829 308.947 281.999 308.955 281.403 308.956L281.405 309.956ZM283.819 309.938L283.829 310.938C286.01 310.918 288.895 310.891 291.511 310.918C294.165 310.946 296.433 311.029 297.443 311.209L297.618 310.224L297.793 309.24C296.585 309.025 294.133 308.945 291.532 308.918C288.893 308.891 285.987 308.918 283.81 308.938L283.819 309.938ZM297.618 310.224L298.618 310.237C298.723 302.134 298.701 293.89 298.68 285.696L297.68 285.699L296.68 285.702C296.701 293.898 296.723 302.126 296.618 310.211L297.618 310.224ZM297.68 285.699L298.68 285.696C298.67 281.676 298.659 277.662 298.664 273.686L297.664 273.685L296.664 273.684C296.659 277.664 296.67 281.682 296.68 285.702L297.68 285.699ZM297.664 273.685L297.689 272.685C275.449 272.113 251.736 272.287 228.5 272.457L228.508 273.457L228.515 274.457C251.757 274.286 275.437 274.113 297.638 274.684L297.664 273.685ZM228.508 273.457L228.5 272.457L228.488 272.457L228.496 273.457L228.504 274.457L228.516 274.457L228.508 273.457ZM228.496 273.457L228.489 272.457C217.627 272.536 206.869 272.615 196.409 272.616L196.409 273.616L196.409 274.616C206.878 274.615 217.643 274.536 228.503 274.457L228.496 273.457ZM196.409 273.616L196.409 272.616L-7.44258e-05 272.631L0 273.631L7.44258e-05 274.631L196.409 274.616L196.409 273.616ZM0 273.631L1 273.632L1.01427 248.051L0.0142727 248.051L-0.985727 248.05L-1 273.63L0 273.631ZM0.0142727 248.051L0.0143313 249.051L332.921 249.031L332.921 248.031L332.921 247.031L0.014214 247.051L0.0142727 248.051ZM332.921 248.031L332.921 249.031C336.216 249.03 339.512 249.026 342.807 249.022L342.806 248.022L342.804 247.022C339.509 247.026 336.215 247.03 332.921 247.031L332.921 248.031ZM342.806 248.022L342.807 249.022C355.225 249.008 367.645 248.994 380.049 249.129L380.06 248.129L380.071 247.129C367.653 246.994 355.22 247.008 342.804 247.022L342.806 248.022ZM380.06 248.129L380.048 249.129C385.161 249.187 390.256 253.103 391.19 258.531L392.176 258.361L393.161 258.191C392.052 251.748 386.081 247.197 380.071 247.129L380.06 248.129ZM392.176 258.361L391.189 258.523C391.692 261.587 391.009 264.732 389.308 267.253L390.137 267.813L390.966 268.372C392.957 265.421 393.747 261.758 393.163 258.199L392.176 258.361ZM390.137 267.813L389.304 267.259C388.022 269.188 386.754 270.352 385.334 271.127C383.896 271.911 382.233 272.335 380.082 272.678L380.239 273.665L380.397 274.653C382.619 274.298 384.551 273.832 386.292 272.882C388.051 271.923 389.545 270.509 390.97 268.366L390.137 267.813ZM380.239 273.665L379.239 273.666L379.262 310.035L380.262 310.034L381.262 310.033L381.239 273.665L380.239 273.665ZM380.262 310.034L380.28 311.034C393.073 310.815 404.13 306.137 413.315 296.654L412.597 295.958L411.878 295.263C403.064 304.362 392.513 308.824 380.245 309.034L380.262 310.034ZM412.597 295.958L413.309 296.66C422.523 287.297 427.711 274.362 427.688 260.866L426.688 260.868L425.688 260.869C425.71 273.856 420.716 286.282 411.884 295.257L412.597 295.958ZM426.688 260.868L427.688 260.869C427.702 247.459 422.598 234.599 413.518 225.223L412.799 225.918L412.081 226.614C420.788 235.605 425.701 247.96 425.688 260.867L426.688 260.868ZM412.799 225.918L413.523 225.228C399.006 210.008 383.809 210.233 366.235 210.459L366.248 211.459L366.261 212.459C383.865 212.232 398.215 212.076 412.076 226.609L412.799 225.918ZM366.248 211.459L366.235 210.459C364.032 210.487 361.793 210.516 359.506 210.516V211.516V212.516C361.808 212.516 364.06 212.487 366.261 212.459L366.248 211.459ZM359.506 211.516V210.516H160.682V211.516V212.516H359.506V211.516ZM160.682 211.516L160.688 210.516L154.422 210.477L154.416 211.477L154.41 212.477L160.676 212.516L160.682 211.516ZM154.416 211.477L154.417 210.477L142.344 210.472L142.344 211.472L142.343 212.472L154.416 212.477L154.416 211.477ZM142.344 211.472L142.317 210.473C136.592 210.626 101.789 210.793 68.145 210.813C51.3277 210.823 34.8082 210.796 22.3683 210.713C16.1477 210.671 10.9507 210.615 7.24761 210.543C5.39508 210.507 3.92261 210.466 2.88492 210.422C2.36479 210.4 1.96329 210.377 1.68145 210.354C1.53947 210.342 1.43935 210.331 1.37483 210.322C1.26835 210.307 1.33582 210.307 1.44542 210.354L1.04957 211.272L0.653731 212.191C0.826263 212.265 1.01809 212.291 1.09553 212.302C1.21493 212.319 1.35831 212.334 1.51755 212.347C1.83814 212.373 2.26997 212.397 2.79929 212.42C3.86049 212.466 5.35137 212.506 7.20846 212.543C10.9246 212.615 16.1319 212.671 22.3549 212.713C34.802 212.796 51.3271 212.823 68.1462 212.813C101.775 212.793 136.612 212.626 142.371 212.472L142.344 211.472ZM1.04957 211.272L2.00061 210.963L1.70738 210.061L0.756342 210.37L-0.194694 210.679L0.0985371 211.581L1.04957 211.272ZM0.756342 210.37L1.65188 210.815L2.73275 208.64L1.83721 208.195L0.941679 207.75L-0.139192 209.925L0.756342 210.37ZM1.83721 208.195L2.71483 208.674L11.9428 191.78L11.0652 191.3L10.1876 190.821L0.959598 207.715L1.83721 208.195ZM11.0652 191.3L11.9421 191.781L15.8684 184.617L14.9914 184.137L14.1145 183.656L10.1882 190.82L11.0652 191.3ZM14.9914 184.137L15.8588 184.634L16.5511 183.428L15.6838 182.93L14.8164 182.432L14.1241 183.639L14.9914 184.137ZM15.6838 182.93L16.5687 183.396C28.5908 160.549 41.1454 137.811 53.7075 115.058L52.8321 114.575L51.9567 114.092C39.3962 136.841 26.8318 159.597 14.7988 182.464L15.6838 182.93ZM52.8321 114.575L53.7075 115.058C65.6137 93.4943 77.5265 71.9179 88.9897 50.2421L88.1057 49.7746L87.2217 49.3071C75.7683 70.9643 63.8643 92.5249 51.9567 114.092L52.8321 114.575ZM88.1057 49.7746L88.5438 50.6736L88.8941 50.5028L88.456 49.6039L88.018 48.705L87.6676 48.8757L88.1057 49.7746ZM88.456 49.6039L89.4442 49.7575L89.6398 48.4992L88.6517 48.3456L87.6636 48.192L87.4679 49.4503L88.456 49.6039ZM88.6517 48.3456L89.3642 49.0473L90.1826 48.2163L89.4702 47.5146L88.7577 46.8129L87.9392 47.6439L88.6517 48.3456ZM89.4702 47.5146L90.366 47.959C95.309 37.9973 101.877 26.215 108.061 15.1228L107.188 14.6359L106.315 14.149C100.137 25.2289 93.5432 37.0565 88.5744 47.0701L89.4702 47.5146ZM107.188 14.6359L108.061 15.1228C110.885 10.0586 113.628 5.13807 116.094 0.609679L115.216 0.131408L114.338 -0.346862C111.877 4.17118 109.139 9.08264 106.315 14.1489L107.188 14.6359ZM115.216 0.131408L115.224 1.13138L126.9 1.03774L126.892 0.0377751L126.884 -0.962193L115.208 -0.86856L115.216 0.131408ZM126.892 0.0377751L126.874 1.03761L128.673 1.07028L128.691 0.0704422L128.709 -0.929393L126.91 -0.96206L126.892 0.0377751ZM128.691 0.0704422L128.691 1.07044L216.519 1.10117L216.519 0.101166L216.52 -0.898834L128.691 -0.929558L128.691 0.0704422ZM216.519 0.101166L216.519 1.10117C221.395 1.10069 226.339 1.12651 231.31 1.15247L231.315 0.152486L231.32 -0.8475C226.351 -0.873457 221.401 -0.899308 216.519 -0.898834L216.519 0.101166ZM231.315 0.152486L231.31 1.15247C241.693 1.20671 252.189 1.26157 262.365 1.07759L262.346 0.0777573L262.328 -0.922079C252.18 -0.738596 241.708 -0.793244 231.32 -0.8475L231.315 0.152486ZM262.346 0.0777573L262.345 1.07776L280.376 1.10702L280.378 0.107018L280.38 -0.892981L262.348 -0.922241L262.346 0.0777573ZM280.378 0.107018L280.378 1.10702L348.481 1.09336L348.481 0.0933594L348.48 -0.906641L280.378 -0.892982L280.378 0.107018ZM348.481 0.0933594L348.48 1.09336C351.753 1.09388 355.035 1.07033 358.319 1.04678L358.311 0.046804L358.304 -0.95317C355.019 -0.929609 351.744 -0.906122 348.481 -0.906641L348.481 0.0933594ZM358.311 0.046804L358.319 1.04678C373.544 0.937572 388.799 0.830251 403.7 3.0895L403.85 2.1008L404 1.1121C388.916 -1.17483 373.502 -1.06218 358.304 -0.95317L358.311 0.046804ZM403.85 2.1008L403.7 3.0895C404.505 3.21152 405.343 3.35984 406.202 3.51208L406.376 2.52741L406.551 1.54275C405.696 1.39137 404.834 1.23851 404 1.11209L403.85 2.1008ZM41.6603 186.238L42.5385 186.716L116.767 50.3668L115.889 49.8886L115.011 49.4105L40.782 185.76L41.6603 186.238ZM115.889 49.8886L116.76 50.3796L117.825 48.4897L116.954 47.9987L116.083 47.5077L115.018 49.3976L115.889 49.8886ZM116.954 47.9987L117.833 48.4768L127.972 29.8496L127.093 29.3716L126.215 28.8935L116.076 47.5207L116.954 47.9987ZM127.093 29.3716L127.966 29.8599L130.096 26.0533L129.223 25.565L128.351 25.0766L126.221 28.8832L127.093 29.3716ZM129.223 25.565L129.223 26.565L231.541 26.5967L231.542 25.5967L231.542 24.5967L129.224 24.565L129.223 25.565ZM231.542 25.5967L231.542 26.5967C236.902 26.5955 242.412 26.629 247.983 26.6629L247.989 25.6629L247.995 24.6629C242.426 24.629 236.908 24.5955 231.541 24.5967L231.542 25.5967ZM247.989 25.6629L247.983 26.6629C260.788 26.7407 273.908 26.8206 286.173 26.4836L286.146 25.484L286.119 24.4844C273.893 24.8203 260.807 24.7408 247.995 24.6629L247.989 25.6629ZM286.146 25.484L286.126 26.4838C298.551 26.7345 311.077 26.6558 323.574 26.5773L323.567 25.5773L323.561 24.5773C311.06 24.6558 298.56 24.7343 286.166 24.4842L286.146 25.484ZM323.567 25.5773L323.574 26.5773C333.373 26.5157 343.155 26.4542 352.871 26.5512L352.881 25.5513L352.891 24.5513C343.156 24.4542 333.358 24.5157 323.561 24.5773L323.567 25.5773ZM352.881 25.5513L352.871 26.5512C355.971 26.5822 359.319 26.5672 362.811 26.5515L362.807 25.5515L362.802 24.5515C359.306 24.5672 355.974 24.5821 352.891 24.5513L352.881 25.5513ZM362.807 25.5515L362.811 26.5515C378.569 26.4808 397.218 26.4067 410.343 30.3579L410.631 29.4003L410.919 28.4428C397.445 24.3864 378.454 24.4813 362.802 24.5515L362.807 25.5515ZM410.631 29.4003L410.399 30.373L412.281 30.8227L412.514 29.85L412.746 28.8774L410.863 28.4277L410.631 29.4003ZM412.514 29.85L412.247 30.8137C480.016 49.5957 521.179 115.352 512.023 188.867L513.015 188.99L514.007 189.114C523.274 114.708 481.594 47.9576 412.781 28.8863L412.514 29.85ZM513.015 188.99L512.03 188.819C510.915 195.245 509.722 200.935 508.306 207.306L509.282 207.523L510.258 207.74C511.677 201.354 512.878 195.631 514 189.161L513.015 188.99ZM509.282 207.523L508.338 207.192C507.539 209.467 506.866 211.534 506.221 213.517L507.172 213.826L508.123 214.136C508.768 212.151 509.434 210.105 510.225 207.855L509.282 207.523ZM507.172 213.826L506.221 213.517C504.827 217.8 503.555 221.708 501.366 226.625L502.28 227.032L503.193 227.438C505.428 222.417 506.728 218.421 508.123 214.136L507.172 213.826ZM502.28 227.032L501.366 226.625C488.09 256.447 470.04 275.82 443.564 292.114L444.088 292.966L444.612 293.817C471.407 277.327 489.742 257.654 503.193 227.439L502.28 227.032ZM444.088 292.966L445.022 293.324C457.311 261.28 452.893 230.625 429.356 205.797L428.63 206.485L427.905 207.173C450.853 231.379 455.2 261.2 443.155 292.608L444.088 292.966ZM428.63 206.485L429.322 205.762C425.024 201.646 421.552 198.714 416.484 195.682L415.971 196.54L415.458 197.398C420.351 200.326 423.702 203.149 427.939 207.207L428.63 206.485ZM415.971 196.54L416.577 195.744L416.282 195.52L415.676 196.316L415.071 197.111L415.365 197.336L415.971 196.54ZM415.676 196.316L416.247 195.495C412.272 192.733 407.233 190.73 402.8 188.962L402.429 189.891L402.059 190.82C406.543 192.608 411.354 194.531 415.106 197.137L415.676 196.316ZM402.429 189.891L402.8 188.962C402.364 188.789 401.935 188.617 401.511 188.448L401.139 189.376L400.767 190.304C401.192 190.475 401.624 190.647 402.059 190.82L402.429 189.891ZM401.139 189.376L401.386 188.407L394.707 186.7L394.459 187.669L394.212 188.638L400.891 190.345L401.139 189.376ZM394.459 187.669L394.67 186.691C389.701 185.619 381.867 185.152 373.479 184.966C365.067 184.781 356.009 184.878 348.555 184.958L348.566 185.958L348.576 186.958C356.037 186.878 365.061 186.781 373.435 186.966C381.833 187.151 389.489 187.619 394.248 188.646L394.459 187.669ZM348.566 185.958L348.555 184.958C345.233 184.994 342.232 185.026 339.742 185.029L339.743 186.029L339.744 187.029C342.246 187.026 345.258 186.994 348.576 186.958L348.566 185.958ZM339.743 186.029V185.029L66.9085 185.025L66.9085 186.025L66.9085 187.025L339.743 187.029V186.029ZM66.9085 186.025L66.9093 185.025C65.3212 185.023 63.6179 185.009 61.8481 184.991L61.8381 185.991L61.8282 186.991C63.5985 187.009 65.3098 187.023 66.9077 187.025L66.9085 186.025ZM61.8381 185.991L61.8482 184.991L60.6548 184.979L60.6447 185.979L60.6346 186.979L61.828 186.991L61.8381 185.991ZM60.6447 185.979L60.6549 184.979C54.2812 184.914 47.1785 184.84 41.5889 185.24L41.6603 186.238L41.7316 187.235C47.2224 186.842 54.2348 186.913 60.6345 186.979L60.6447 185.979ZM358.065 62.0824L358.065 61.0824L149.061 61.1107L149.061 62.1107L149.061 63.1107L358.065 63.0824L358.065 62.0824ZM149.061 62.1107L148.183 61.6317C143.26 70.6555 138.21 79.8024 133.13 89.0033L134.005 89.4867L134.881 89.97C139.96 80.7698 145.013 71.6185 149.939 62.5896L149.061 62.1107ZM134.005 89.4867L133.13 89.0033C122.088 109.002 110.903 129.26 100.589 149.046L101.475 149.508L102.362 149.97C112.663 130.209 123.836 109.973 134.881 89.97L134.005 89.4867ZM101.475 149.508V150.508L353.139 150.509V149.509V148.509L101.475 148.508V149.508ZM353.139 149.509L353.14 150.509C355.608 150.508 358.124 150.487 360.667 150.467L360.659 149.467L360.651 148.467C358.106 148.487 355.598 148.508 353.139 148.509L353.139 149.509ZM360.659 149.467L360.667 150.467C374.786 150.352 389.732 150.236 402.757 153.223L402.98 152.249L403.204 151.274C389.907 148.224 374.714 148.353 360.651 148.467L360.659 149.467ZM402.98 152.249L402.751 153.222C422.173 157.799 439.949 168.2 453.959 183.192L454.69 182.51L455.421 181.827C441.148 166.554 423.027 155.945 403.21 151.275L402.98 152.249ZM454.69 182.51L453.96 183.193C457.993 187.499 460.888 191.303 464.399 196.066L465.204 195.472L466.009 194.879C462.487 190.102 459.535 186.22 455.42 181.826L454.69 182.51ZM465.204 195.472L464.359 196.007C464.593 196.376 464.824 196.74 465.051 197.098L465.895 196.562L466.74 196.026C466.512 195.668 466.282 195.306 466.049 194.937L465.204 195.472ZM465.895 196.562L465.051 197.098C467.526 200.999 469.609 204.285 471.694 208.548L472.593 208.109L473.491 207.669C471.351 203.294 469.211 199.922 466.74 196.026L465.895 196.562ZM472.593 208.109L473.543 208.419L475.329 202.957L474.379 202.646L473.428 202.335L471.642 207.798L472.593 208.109ZM474.379 202.646L475.318 202.989C476.521 199.691 476.978 197.867 477.77 194.465L476.796 194.238L475.822 194.012C475.038 197.379 474.602 199.115 473.439 202.304L474.379 202.646ZM476.796 194.238L477.768 194.472L479.075 189.044L478.103 188.81L477.131 188.576L475.823 194.004L476.796 194.238ZM478.103 188.81L479.091 188.964C482.825 165.053 481.143 143.922 471.101 121.693L470.19 122.105L469.278 122.516C479.132 144.329 480.801 165.054 477.115 188.656L478.103 188.81ZM470.19 122.105L471.101 121.692C459.542 96.1751 438.865 76.565 413.616 67.2152L413.269 68.1529L412.921 69.0907C437.647 78.2466 457.931 97.4642 469.279 122.517L470.19 122.105ZM413.269 68.1529L413.631 67.2209L410.938 66.1738L410.576 67.1058L410.213 68.0378L412.906 69.085L413.269 68.1529ZM410.576 67.1058L410.871 66.1504C393.865 60.8973 380.905 60.9718 364.736 61.059L364.742 62.059L364.747 63.059C380.914 62.9717 393.597 62.9079 410.281 68.0613L410.576 67.1058ZM364.742 62.059L364.736 61.059C362.576 61.0707 360.359 61.0826 358.065 61.0824L358.065 62.0824L358.065 63.0824C360.365 63.0826 362.587 63.0706 364.747 63.059L364.742 62.059Z" fill="black" mask="url(#path-1-inside-1_1_400)"/>
</svg>
