<svg width="431" height="652" viewBox="0 0 431 652" fill="none" xmlns="http://www.w3.org/2000/svg">
<path d="M209.033 162.118C209.786 162.255 210.767 162.426 211.446 162.758C212.714 163.367 213.643 164.509 213.978 165.873C215.463 172.023 207.261 176.604 200.906 172.506C199.471 170.334 198.647 168.607 199.54 166C200.596 164.914 200.218 164.98 201.466 164.713C203.027 165.623 202.919 167.682 204.911 169.542C209.89 170.962 208.134 164.851 209.033 162.118Z" fill="black"/>
<path d="M209.734 154.567C211.688 154.423 214.057 154.161 214.918 156.21C214.512 157.524 213.721 157.422 212.009 157.323C205.381 156.941 200.992 159.522 196.354 164.063C195.404 165.166 194.812 166.159 193.46 166.534L192.959 166.07C193.069 159.744 204.392 155.426 209.734 154.567Z" fill="black"/>
<path d="M279.872 149.366C282.975 150.063 284.091 152.356 283.8 155.48C283.125 162.734 274.445 164.65 270.48 158.56C269.715 156.022 269.037 152.638 271.782 150.945C273.818 152.358 273.087 158.831 278.626 156.704C280.655 154.528 279.544 152.331 279.872 149.366Z" fill="black"/>
<path d="M275.213 141.125C280.219 140.714 286.198 141.132 289.745 145.491C290.342 146.226 290.249 146.26 290.092 147.105C287.802 147.932 285.799 145.74 283.475 144.578C276.773 143.739 272.528 145.333 266.552 147.715C269.41 143.21 270.156 142.451 275.213 141.125Z" fill="black"/>
<path d="M217.667 241.528C220.066 241.906 224.463 247.156 227.388 249.197C229.939 250.965 232.778 252.277 235.78 253.075C240.159 254.277 246.735 255.099 251.163 253.629C253.964 252.7 257.914 248.827 260.7 249.61C262.192 251.357 261.491 252.704 260.07 254.128C251.435 260.692 236.314 263.064 226.851 256.862C222.874 254.256 217.611 249.349 216.642 244.474C216.399 243.251 217.015 242.502 217.667 241.528Z" fill="black"/>
<path d="M23.384 204.894C29.863 176.96 86.8853 169.011 97.7582 143.103C103.248 128.81 92.8976 118.519 83.3344 109.616C77.7174 104.337 71.0836 98.7318 65.2552 93.8105C50.771 81.5798 42.5923 72.4139 57.6781 55.7884C69.347 42.9294 77.9259 38.0346 93.647 31.5607L93.9965 32.7132C78.5279 38.0543 57.9616 51.4342 56.89 69.6667C56.2559 80.4519 70.7938 91.0029 78.1743 97.2795C82.0546 100.544 85.7696 103.999 89.306 107.633C96.503 115.016 101.364 122.445 101.111 133.179C100.256 169.38 62.9497 167.947 42.267 188.285C38.2882 192.198 34.7131 197.747 34.8574 203.483C35.5445 218.146 51.4084 224.294 61.1477 232.004C69.9579 238.978 85.7499 249.186 85.3504 261.532C84.9472 273.99 69.9803 278.125 60.9366 282.945C56.4215 285.316 52.248 288.286 48.5296 291.776C41.7634 298.24 36.405 306.497 36.1726 316.076C34.5646 313.704 33.1487 311.564 32.5112 308.719C31.5724 304.536 32.5747 300.145 34.6832 296.47C43.728 280.703 69.3544 274.929 74.999 265.362C77.7222 260.746 75.4831 255.237 72.5275 251.331C68.9053 246.545 63.7997 243.089 59.0836 239.477C51.4502 233.63 31.2065 218.505 26.3296 211.721C24.7704 209.552 24.0323 207.445 23.384 204.894Z" fill="white"/>
<path d="M131.162 164.473C131.653 165.008 131.638 164.777 131.267 165.417C129.166 169.045 128.065 172.349 128.189 176.667C128.349 182.229 130.477 186.063 133.992 190.098C148.17 206.373 174.02 202.656 189.208 215.223C191.195 216.866 193.238 221.007 192.911 223.745C190.401 244.826 156.719 246.801 143.664 259.579C140.354 262.818 138.029 266.252 138.004 270.689C137.916 286.114 160.562 289.064 169.345 298.529C174.696 304.297 174.798 307.996 174.706 315.073C173.204 310.054 172.631 308.727 169.733 304.402C161.852 294.536 151.291 292.013 140.657 285.875C133.142 281.538 127.808 279.749 125.134 271.059C129.054 254.924 154.94 246.524 168.459 240.392C174.309 237.738 188.834 233.486 188.432 225.889C187.627 210.639 160.271 207.286 149.321 202.252C140.926 198.184 129.424 192.782 123.402 185.411C115.949 176.288 124.727 169.178 131.162 164.473Z" fill="white"/>
<path fill-rule="evenodd" clip-rule="evenodd" d="M196.783 0.267807C217.869 -0.710878 236.936 0.858081 257.085 7.21803C280.118 14.4901 301.092 29.6176 307.511 53.8958C310.82 66.4105 308.459 68.3313 315.602 80.7692C323.58 94.6613 336.19 104.001 343.307 117.796C352.184 134.999 348.279 151.228 339.54 167.473C337.048 172.105 333.342 179.288 331.786 184.163C328.03 195.947 332.088 203.323 337.512 213.308C344.979 227.062 342.103 236.396 333.036 248.225C330.88 251.037 328.272 255.066 327.045 258.685C324.11 266.397 334.155 271.756 339.436 275.976C355.65 288.932 353.494 310.647 334.677 319.991C318.858 327.847 302.196 327.208 285.725 321.329C276.228 317.943 259.914 309.409 255.079 299.921C252.081 300.527 250.357 300.814 247.321 301.059C246.944 304.804 246.172 308.82 246.053 312.522C245.546 328.119 250.45 342.817 252.867 357.79C253.404 368.506 249.476 379.241 247.727 389.771C247.018 394.044 246.731 403.413 243.203 405.505C239.682 406.083 230.565 396.988 227.898 394.33C213.531 380.016 200.031 366.482 181.356 357.634C177.734 355.885 174.01 354.348 170.205 353.04C167.731 352.182 157.472 349.323 156.751 346.866L157.283 346.128C163.273 343.276 172.162 347.049 177.933 349.301C203.855 359.424 220.181 379.204 240.26 397.246C241.009 392.399 246.504 362.523 248.108 359.614C247.224 355.878 246.56 351.877 245.587 348.167C242.48 336.31 239.625 327.943 239.483 315.39C234.541 316.504 229.614 316.235 224.601 315.997C207.884 315.191 194.845 311.654 179.69 304.965C181.47 317.988 177.146 328.634 166.442 336.642C153.589 346.258 134.463 346.314 118.945 346.321L97.7538 346.347C91.6576 346.355 85.1192 345.136 79.8383 348.458C25.4473 382.675 4.61707 455.392 11.0192 516.455C14.2422 547.193 18.7731 570.914 34.4247 597.752C53.4932 630.816 90.4445 650.097 128.715 646.89C144.293 645.224 160.382 640.134 174.872 634.444C192.151 627.662 209.91 620.354 224.288 608.46C226.553 606.588 232.812 600.619 235.438 601.204C235.818 601.927 236.124 602.588 235.851 603.441C234.508 607.629 221.819 616.667 218.421 618.781C195.86 632.837 155.265 649.265 129.063 651.651C119 652.487 108.868 651.819 99.001 649.672C35.5816 636.387 11.4142 577.028 6.44178 518.978C4.21243 492.95 4.16588 476.383 9.81857 450.538C18.734 409.77 37.7562 370.117 73.9449 346.772C65.0592 346.795 55.7096 347.47 47.0763 347.321C33.8753 347.094 16.104 346.198 6.47326 336.18C1.97461 331.504 -0.28987 324.465 0.0297292 318.059C1.02194 298.159 18.9713 286.95 32.266 274.872C36.7698 270.613 41.9717 265.057 42.0432 258.477C42.1207 251.363 35.1494 246.398 29.6958 243.082C25.4617 240.507 21.0739 238.25 16.8764 235.635C13.7533 233.728 10.874 231.445 8.30444 228.84C3.43992 223.833 0.57622 217.681 0.929585 210.625C2.37535 186.135 24.7833 167.889 44.0877 156.41C59.0919 147.487 98.2922 133.104 65.711 116.489C52.4984 109.751 34.5159 102.344 35.1148 84.7133C35.7602 62.8087 56.806 42.1811 74.9276 31.8229C91.9007 22.8625 111.342 16.8734 130.458 15.0083C138.375 14.2354 146.844 14.8905 154.862 14.9245C169.695 5.18777 178.915 1.93111 196.783 0.267807ZM319.839 115.574C324.124 124.964 331.912 138.64 327.656 148.438C323.136 158.838 313.685 166.84 311.032 178.554C308.985 187.603 309.346 200.528 311.278 209.636C312.379 215.03 315.557 221.485 314.598 227.145C311.565 245.053 293.964 250.941 301.723 271.391C306.192 283.162 325.012 289.502 321.824 302.146C320.354 307.988 310.16 311.4 304.747 313.209C307.847 313.1 310.79 313.086 313.849 312.515C334.058 307.046 332.327 296.25 319.988 282.974C306.12 268.051 306.605 252.715 318.586 236.889C321.073 233.601 325.396 227.702 323.913 223.283C322.555 219.573 319.178 215.55 317.172 212.044C309.186 198.931 309.499 187.062 315.832 173.364C321.834 160.388 336.202 145.55 330.839 130.615C329.246 126.184 323.475 118.189 319.839 115.574ZM216.135 78.2886C216.053 95.3029 215.541 105.165 211.505 122.041C215.09 122.17 227.846 123.719 224.139 129.759C223.531 130.134 222.445 130.848 221.856 130.488C217.108 127.596 215.146 128.193 209.984 127.714C208.328 132.85 204.839 145.214 200.097 147.78C199.034 148.368 197.777 148.499 196.616 148.14C195.763 147.875 194.04 146.952 193.871 146.132C193.046 142.129 193.614 137.438 193.136 133.218C191.153 134.49 184.417 139.644 183.017 136.391C183.8 132.171 188.7 129.274 192.285 127.513C190.835 120.42 189.153 111.038 186.849 104.33C185.941 113.309 179.31 134.622 172.789 141.266C170.795 143.297 155.594 156.654 157.388 160.019C158.771 162.61 171.377 160.341 172.34 165.492C171.845 166.263 171.697 166.653 170.816 166.924C168.95 167.497 154.353 166.363 153.756 165.235C149.81 157.754 145.839 157.571 139.251 164.059C136.828 166.446 133.147 172.361 133.539 176.469C133.907 181.328 136.259 184.709 139.603 188.108C154.913 203.665 194.32 196.781 198.187 222.486C199.648 232.204 190.282 240.76 182.804 245.531C183.804 250.026 184.931 255.032 186.844 259.202C191.647 269.673 200.588 280.718 210.226 286.954C220.174 293.389 231.782 296.054 243.471 295.654C261.069 296.169 272.393 284.74 281.237 270.786C290.752 255.773 294.166 239.121 297.784 222.02C299.261 215.045 301.021 207.74 302.084 200.715C302.606 196.424 302.606 191.841 303.237 187.675C304.352 180.33 304.889 174.024 304.978 166.622C301.774 174.646 297.12 180.529 288.963 184.023C281.861 187.14 273.789 187.203 266.642 184.198C261.1 181.913 257.783 178.854 254.117 174.252C255.493 178.844 256.873 183.442 258.443 187.915C260.939 195.023 267.891 205.065 263.77 212.462C259.906 219.4 244.259 221.705 237.676 217.681C236.639 217.046 235.922 216.348 235.665 215.195C236.306 214.426 237.433 214.095 238.779 214.052C244.229 213.877 259.797 215.402 259.861 206.645C259.887 202.556 254.147 193.753 253.109 189.423C249.48 178.943 246.392 165.506 245.4 154.515C239.212 155.725 236.149 157.402 232.628 162.926C234.945 169.751 233.912 177.644 230.76 184.037C227.276 191 221.174 196.301 213.789 198.777C206.172 201.302 197.855 200.655 190.72 196.981C183.912 193.451 178.783 187.366 176.459 180.06C174.042 172.431 174.767 164.153 178.473 157.059C179.753 154.658 182.326 150.648 185.489 151.363C187.294 154.238 183.638 157.993 182.379 160.667C176.262 173.657 183.116 189.636 196.837 194.056C203.158 196.046 210.01 195.435 215.877 192.357C221.573 189.37 225.825 184.214 227.671 178.056C229.555 171.923 228.947 166.235 226.31 160.292C224.314 155.802 218.373 152.154 217.739 148.472C218.294 147.449 218.34 147.546 219.421 147.035C223.524 146.79 228.537 153.826 230.555 157.031C234.661 152.237 238.604 150.47 244.739 149.288C244.586 145.321 244.452 139.395 243.452 135.4L242.263 134.113C241.812 130.596 242.11 125.299 241.192 121.987C236.929 106.544 228.145 89.9682 216.694 78.7174C216.508 78.5743 216.321 78.4313 216.135 78.2886ZM261.148 69.5976C258.481 74.6009 259.015 84.0981 258.284 89.8669C257.362 97.1325 256.65 108.497 254.703 115.476C267.299 107.572 285.841 103.067 296.65 116.823C297.329 117.685 297.705 118.779 297.75 119.869C296.542 122.424 293.117 120.662 291.621 119.229C284.546 112.444 276.433 112.458 267.69 115.284C248.906 121.357 248.775 131.584 250.275 148.532C251.435 146.827 252.729 144.701 254.788 144.128C255.653 144.604 255.526 144.33 255.817 145.45C256.459 147.902 254.893 150.878 254.46 153.336C252.954 161.883 255.867 169.844 262.204 175.572C268.026 179.841 273.569 182.109 280.965 181C287.232 180.077 292.871 176.7 296.638 171.614C302.237 164.011 302.815 153.845 297.966 145.649C295.907 142.166 291.86 139.469 289.775 136.006C289.35 135.315 289.842 134.766 290.182 134.255C296.881 131.992 303.017 144.029 305.076 148.947C304.621 135.785 305.397 119.779 298.213 108.224C297.333 106.81 291.846 106.954 288.407 103.532C283.263 98.4082 265.411 70.9359 261.148 69.5976ZM150.845 17.6078C135.203 23.7648 126.28 34.6252 119.841 49.8166C112.376 67.4286 108.236 87.1166 115.694 105.403C120.694 117.664 125.296 126.634 131.573 137.534L132.852 139.742C134.065 142.282 139.68 152.083 142.217 153.191C141.672 152.509 137.318 145.24 134.971 141.315L133.487 138.839C127.488 127.026 120.122 110.874 116.77 98.1372C113.926 87.3332 116.415 70.5267 119.78 60.1376C126.232 41.6743 135.368 29.0719 150.845 17.6078ZM242.413 9.10793C251.458 12.9088 264.427 18.1578 272.219 24.085C281.771 31.3497 291.887 44.6389 296.352 55.71C297.933 59.5831 299.071 63.6223 299.746 67.7508C300.898 74.735 301.137 89.8051 299.227 96.8462C298.984 97.7445 296.56 100.654 295.802 101.587C296.574 101.758 297.272 101.101 297.944 100.606C304.456 91.8043 305.329 72.5622 303.673 61.9914C301.17 46.0286 293.092 34.2535 280.365 24.6851C272.767 18.9719 251.242 9.34099 242.413 9.10793Z" fill="black"/>
<path d="M346.803 413.346C348.828 415.061 351.197 418.402 353.782 420.777C350.566 418.823 348.272 416.768 346.101 413.663L346.803 413.346Z" fill="#49484B"/>
<path fill-rule="evenodd" clip-rule="evenodd" d="M399.749 359.908C405.613 366.676 407.374 374.491 410.201 382.82L418.869 408.354L425.974 428.92C428.705 436.795 431.473 443.36 430.932 451.839C430.663 456.067 429.302 457.175 426.464 460.218C425.778 460.959 426.948 461.373 427.612 461.85C427.776 464.59 406.449 483.888 403.159 487.506C393.308 498.33 382.849 508.827 371.92 518.569C369.615 520.582 365.288 521.809 362.573 523.957C362.756 525.24 363.367 528.255 362.308 529.147C357.277 533.378 352.39 538.412 346.441 541.332C344.069 542.495 341.785 543.834 339.436 545.042C329.693 550.262 320.67 556.969 310.275 560.921C304.289 563.173 296.474 564.695 290.156 566.112L264.777 571.782C261.311 572.539 254.213 573.591 251.3 574.65C252.24 580.343 252.87 585.716 249.357 590.683C244.717 597.229 234.485 595.876 229.028 591.167C217.51 581.328 211.55 563.125 209.98 548.572C208.965 539.15 208.021 526.126 214.037 518.415C216.756 514.933 219.607 513.301 222.799 517.148C224.754 512.532 226.381 508.714 229.298 504.497C238.593 491.06 255.303 483.793 269.924 477.596C277.171 474.524 282.599 473.371 288.425 467.365C289.559 466.194 291.233 464.215 292.696 464.419C293.24 465.937 292.051 468.883 291.271 470.285C286.754 478.401 278.455 481.343 270.104 483.692C246.717 490.269 225.937 511.254 223.147 535.873C217.962 525.929 222.508 522.949 221.512 520.037C220.744 519.944 219.741 520.374 219.227 520.94C212.002 528.871 214.563 543.498 216.499 553.289C219.05 566.19 225.456 581.633 240.286 583.866C245.966 584.72 246.91 580.708 246.966 575.921C244.631 576.756 235.214 580.827 234.165 578.043C235.43 571.54 257.824 567.949 263.837 566.603L289.077 560.97C294.743 559.706 300.45 558.561 305.974 556.827C315.993 553.681 324.513 547.484 333.498 542.271C339.466 538.811 345.908 536.052 351.663 532.219C353.893 530.735 356.098 529.206 358.231 527.588C352.818 528.74 325.038 539.698 323.195 532.379C325.355 528.289 335.433 527.934 339.693 526.391C347.574 523.535 356.121 520.139 363.371 515.922C346.993 507.585 331.827 517.345 315.124 511.384C321.163 508.17 326.131 507.178 332.8 505.687C344.635 503.047 358.194 499.505 368.082 492.271C370.622 490.415 373.035 487.648 375.131 485.296C365.024 484.837 362.371 486.955 352.718 489.114C347.552 490.269 339.13 490.243 333.588 491.224C320.589 493.521 317.615 496.351 304.191 495.956C329.625 485.27 338 483.39 357.444 460.669C353.879 460.892 351.099 461.235 347.731 462.499C331.789 468.476 316.962 477.842 299.845 480.296C297.924 480.572 293.374 481.555 293.013 478.818C294.393 476.197 297.376 472.271 298.257 470.056C303.732 456.276 313.315 444.572 320.857 431.82C323.143 427.95 330.233 416.061 333.751 414.345C337.805 414.263 345.944 420.505 349.04 423.439C353.856 428.062 362.842 435.739 368.593 438.506C362.092 432.965 355.979 428.315 349.608 422.421C346.452 419.837 340.186 413.995 340.514 409.606L341.055 409.184C342.957 409.624 344.815 412.156 346.101 413.663L346.803 413.346C345.434 411.433 344.259 409.419 343.998 407.022L344.293 406.463C346.017 406.733 353.904 415.867 356.254 418.011C367.164 427.977 381.868 438.894 394.643 446.109L372.405 424.997C365.355 418.308 356.657 410.631 351.409 402.485C361.181 408.014 369.709 416.985 377.862 424.785L397.776 443.797C393.289 435.687 381.819 423.752 375.131 417.141C371.658 413.707 357.16 402.737 356.485 400.799C358.488 400.083 363.214 403.432 364.877 404.737C369.872 396.851 384.088 372.269 390.265 367.619C388.179 374.749 372.036 399.314 366.997 406.336C377.429 415.295 383.3 420.527 392.159 431.403C396.224 436.395 406.497 451.652 410.313 454.61C414.241 450.975 415.565 449.762 420.249 447.339C414.49 439.237 411.965 433.323 407.847 424.471C401.014 409.796 395.583 395.356 393.327 379.234C392.909 376.255 391.092 366.903 392.994 364.647L393.606 364.659L394.598 366.091C395.978 365.229 396.703 364.01 397.687 363.95C398.343 365.937 396.698 368.2 395.736 369.923C397.179 378.342 398.291 386.336 400.488 394.602C403.413 405.598 407.945 415.43 412.663 425.729C415.528 431.974 418.672 439.207 423.117 444.516C424.386 444.583 423.768 444.71 424.972 443.89C425.241 443.118 425.493 442.708 425.172 441.884C423.405 437.305 421.89 432.391 420.301 427.761L406.948 388.913C403.848 379.882 399.07 369.42 399.749 359.908ZM425.169 461.287C407.422 469.874 407.944 460.001 400.85 461.06C402.394 461.854 403.976 462.394 404.849 463.807C405.102 466.298 403.252 468.103 401.611 469.866C388.851 483.613 375.4 496.754 362.144 510.031C363.255 510.724 364.319 511.35 365.355 512.151L375.937 504.252C381.166 500.374 386.631 496.026 391.957 492.368C404.613 483.684 414.21 471.928 425.169 461.287ZM427.933 449.326C422.722 453.166 418.075 455.351 412.104 457.693C411.842 457.794 410.987 459.006 410.7 459.36L410.249 459.919C409.548 460.165 408.876 460.408 408.231 460.777C408.973 461.608 408.642 461.321 409.742 461.779C416.318 462.73 426.855 460.012 428.541 451.798C428.705 451.004 428.503 449.93 427.933 449.326ZM336.874 418.533C337.11 422.769 355.251 438.014 359.201 441.019C364.147 444.785 382.625 456.104 388.257 456.589L387.891 456.34C380.898 451.687 372.058 447.753 364.784 443.365C357.608 439.036 350.98 432.868 344.595 427.447C341.786 425.061 339.861 422.943 338.04 419.755C337.518 418.838 337.455 418.454 336.874 418.533ZM365.587 431.105C370.127 436.317 397.437 453.998 403.398 455.426C401.518 453.704 387.776 446.112 383.908 443.67C379.25 440.728 369.571 433.271 365.587 431.105Z" fill="black"/>
<path d="M102.014 426.008C106.604 428.756 101.539 454.572 100.85 460.299C98.0174 483.834 94.1971 509.497 96.5903 533.121C98.0629 547.663 109.897 555.478 123.602 557.674C131.711 558.96 140.008 558.378 147.857 555.966C164.877 550.649 189.833 530.47 204.836 519.874C206.638 518.602 208.473 517.137 210.659 517.514C212.598 519.262 211.707 520.508 210.204 522.059C192.474 534.464 174.482 549.359 154.856 558.457C135.884 567.252 103.085 564.527 94.2064 542.469C91.9196 536.786 90.9457 529.501 90.9699 523.405C91.0684 498.785 93.8327 474.195 97.5108 449.874C98.7824 441.507 98.7705 433.763 102.014 426.008Z" fill="black"/>
<path d="M253.8 326.146C260.819 325.554 266.869 328.756 273.143 331.501C284.098 336.295 295.624 341.15 305.437 348.066C321.678 359.509 332.897 378.122 335.788 397.745C336.344 401.53 336.665 404.42 334.397 407.589C333.334 407.305 332.245 406.537 331.913 405.501C330.723 401.728 330.007 397.305 329.201 393.45C322.603 361.795 297.157 346.728 269.257 335.938C265.959 334.662 253.319 329.942 252.849 326.609L253.8 326.146Z" fill="black"/>
<path d="M379.306 393.01C383.174 396.336 385.251 407.19 388.922 410.829C389.779 411.683 389.858 411.422 390.41 412.641C388.978 418.924 395.96 416.396 394.785 421.739C393.647 422.466 393.591 422.604 392.234 422.846C389.291 421.772 378.675 396.355 379.306 393.01Z" fill="black"/>
<path d="M396.385 414.047C398.232 414.736 398.672 418.234 399.839 420.296C403.644 427.018 407.642 433.782 410.388 441.019C410.313 441.481 410.235 441.94 410.16 442.402C407.806 441.47 404.371 433.379 403.017 430.669C400.365 425.355 395.36 420.124 396.385 414.047Z" fill="black"/>
<path d="M386.561 384.312C387.195 385.341 387.131 387.746 387.202 389.08C390.268 391.802 394.74 400.982 394.393 405.113L393.592 405.758C391.458 403.547 391.167 399.945 389.507 396.757C387.717 393.32 387.583 392.925 385.046 389.796C385.307 387.582 385.434 386.228 386.561 384.312Z" fill="black"/>
<path d="M372.651 401.396C374.893 401.433 377.784 401.015 378.5 403.551L378.384 403.875C377.206 407.291 379.746 406.522 381.234 409.64C382.693 412.701 383.282 412.283 382.584 415.747C381.551 415.959 382.062 416 381.04 415.355C379.537 412.294 377.747 409.86 376.046 406.944C375.128 405.367 376.471 405.374 375.643 403.816C373.442 403.309 373.118 403.577 372.651 401.396Z" fill="black"/>
<path d="M396.438 426.932C397.773 427.249 398.25 427.548 399.078 428.599L399.194 429.311C399.824 433.148 399.28 432.563 401.652 435.806C403.036 436.123 404.33 436.243 405.315 437.219C405.714 438.51 405.143 439.386 404.629 440.702C403.677 441.243 404.144 441.224 403.222 441.011C401.734 436.299 399.612 437.436 397.266 433.659C395.74 431.209 397.728 430.523 396.438 426.932Z" fill="black"/>
</svg>
