<svg width="539" height="398" viewBox="0 0 539 398" fill="none" xmlns="http://www.w3.org/2000/svg">
<mask id="path-1-inside-1_1_361" fill="white">
<path fill-rule="evenodd" clip-rule="evenodd" d="M380.716 360.351C380.706 359.035 380.696 357.724 380.686 356.42C380.696 357.734 380.706 359.054 380.716 360.379L380.716 360.351ZM380.053 397.002C380.084 396.999 380.121 396.995 380.165 396.99C380.15 396.992 380.137 396.993 380.124 396.995C380.097 396.997 380.074 397 380.053 397.002Z"/>
<path fill-rule="evenodd" clip-rule="evenodd" d="M406.376 2.52741C407.821 2.78329 409.285 3.04264 410.654 3.18498L413.273 3.79071C458.621 15.6987 491.19 39.4304 516.164 82.0101C533.362 111.336 542.638 155.402 537.095 189.584C536.904 190.869 536.716 192.17 536.527 193.477C536.113 196.346 535.695 199.24 535.226 202.045C532.607 213.408 530.853 220.558 526.682 231.483C513.733 264.691 491.112 292.642 462.115 311.263C445.009 322.266 431.369 327.192 412.247 332.137C412.109 335.183 412.107 338.122 412.105 341.029C412.103 343.665 412.101 346.278 411.998 348.919L411.018 350.002C404.342 350.228 397.007 350.136 389.895 350.047C386.746 350.008 383.63 349.968 380.644 349.958C380.662 353.369 380.689 356.843 380.716 360.351L380.716 360.379C380.811 372.573 380.908 385.179 380.626 396.954C380.38 396.968 380.228 396.984 380.124 396.995C380.018 397.005 379.962 397.011 379.908 397.005C379.848 396.998 379.789 396.977 379.666 396.931C379.6 396.907 379.515 396.876 379.402 396.837C371.267 392.183 362.646 386.818 354.143 381.527C348.976 378.312 343.853 375.124 338.91 372.139C331.868 376.252 324.849 380.601 317.818 384.958C311.126 389.105 304.421 393.26 297.677 397.222L297.636 335.453C295.377 335.85 287.305 335.791 282.914 335.758C282.07 335.752 281.361 335.747 280.857 335.746L248.128 335.692L20.1201 335.722C19.0149 335.723 17.6167 335.739 16.0637 335.758C10.6253 335.822 3.28958 335.908 0.000912385 335.434L0.0230118 310.268C2.45623 309.839 11.2336 309.908 16.363 309.949C17.5315 309.958 18.5112 309.966 19.1828 309.966L104.398 309.975L128.37 309.936L247.977 309.995L281.405 309.956C282.005 309.955 282.84 309.947 283.819 309.938C288.177 309.897 295.4 309.83 297.618 310.224C297.723 302.13 297.701 293.894 297.68 285.699C297.67 281.679 297.659 277.663 297.664 273.685C275.443 273.113 251.746 273.286 228.508 273.457L228.496 273.457C217.635 273.536 206.873 273.615 196.409 273.616L0 273.631L0.0142727 248.051L332.921 248.031C336.215 248.03 339.511 248.026 342.806 248.022C355.223 248.008 367.649 247.994 380.06 248.129C385.621 248.192 391.154 252.425 392.176 258.361C392.719 261.672 391.983 265.077 390.137 267.813C387.43 271.885 384.613 272.968 380.239 273.665L380.262 310.034C392.793 309.819 403.597 305.249 412.597 295.958C421.619 286.79 426.711 274.109 426.688 260.868C426.701 247.709 421.693 235.102 412.799 225.918C398.611 211.042 383.837 211.232 366.248 211.459C364.046 211.487 361.8 211.516 359.506 211.516H160.682L154.416 211.477L142.344 211.472C130.86 211.78 3.06356 212.14 1.04957 211.272L0.756342 210.37L1.83721 208.195L11.0652 191.3L14.9914 184.137L15.6838 182.93C27.7113 160.073 40.2708 137.326 52.8321 114.575C64.739 93.0096 76.6474 71.4411 88.1057 49.7746L88.456 49.6039L88.6517 48.3456L89.4702 47.5146C94.4261 37.5269 101.007 25.722 107.188 14.6359C110.012 9.57062 112.753 4.65462 115.216 0.131408L126.892 0.0377751L128.691 0.0704422L216.519 0.101166C221.398 0.100692 226.345 0.126527 231.315 0.152486C241.7 0.20673 252.185 0.261487 262.346 0.0777573L280.378 0.107018L348.481 0.0933594C351.749 0.093879 355.027 0.0703609 358.311 0.046804C373.523 -0.0623025 388.858 -0.17229 403.85 2.1008C404.67 2.22502 405.52 2.3756 406.376 2.52741ZM41.6603 186.238L115.889 49.8886L116.954 47.9987L127.093 29.3716L129.223 25.565L231.542 25.5967C236.905 25.5955 242.419 25.629 247.989 25.6629C260.797 25.7408 273.9 25.8205 286.146 25.484C298.556 25.7344 311.068 25.6558 323.567 25.5773C333.366 25.5157 343.155 25.4542 352.881 25.5513C355.972 25.5822 359.312 25.5672 362.807 25.5515C378.512 25.481 397.331 25.3965 410.631 29.4003L412.514 29.85C480.805 48.7766 522.226 115.03 513.015 188.99C511.896 195.438 510.7 201.144 509.282 207.523C508.486 209.786 507.817 211.842 507.172 213.826C505.777 218.111 504.491 222.063 502.28 227.032C488.916 257.051 470.724 276.574 444.088 292.966C456.255 261.24 451.873 231.002 428.63 206.485C424.363 202.398 420.952 199.52 415.971 196.54L415.676 196.316C411.813 193.632 406.888 191.669 402.429 189.891C401.994 189.718 401.564 189.546 401.139 189.376L394.459 187.669C384.73 185.57 363.48 185.798 348.566 185.958C345.245 185.994 342.239 186.026 339.743 186.029L66.9085 186.025C65.3155 186.023 63.6082 186.009 61.8381 185.991L60.6447 185.979C54.258 185.914 47.2005 185.841 41.6603 186.238Z"/>
<path fill-rule="evenodd" clip-rule="evenodd" d="M149.061 62.1107L358.065 62.0824C360.362 62.0826 362.582 62.0706 364.742 62.059C380.91 61.9717 393.731 61.9026 410.576 67.1058L413.269 68.1529C438.256 77.4058 458.736 96.8196 470.19 122.105C480.138 144.126 481.813 165.053 478.103 188.81L476.796 194.238C476.008 197.623 475.562 199.403 474.379 202.646L472.593 208.109C470.48 203.789 468.368 200.46 465.895 196.562C465.668 196.204 465.438 195.841 465.204 195.472C461.687 190.702 458.764 186.86 454.69 182.51C440.548 167.377 422.6 156.872 402.98 152.249C389.82 149.23 374.75 149.352 360.659 149.467C358.115 149.487 355.603 149.508 353.139 149.509L101.475 149.508C111.783 129.735 122.962 109.488 134.005 89.4867C139.085 80.2861 144.137 71.137 149.061 62.1107Z"/>
</mask>
<path d="M61.8381 185.991L61.853 184.491L61.8381 185.991ZM60.6447 185.979L60.6294 187.479C61.0282 187.483 61.4299 187.487 61.8232 187.491L61.8381 185.991L61.853 184.491C61.4601 184.487 61.0588 184.483 60.66 184.479L60.6447 185.979ZM387.537 350.018L387.519 351.518C388.301 351.527 389.087 351.537 389.876 351.547L389.895 350.047L389.913 348.547C389.124 348.537 388.338 348.527 387.555 348.518L387.537 350.018ZM380.716 360.379L382.216 360.366L382.216 360.338L380.716 360.351L379.216 360.363L379.216 360.392L380.716 360.379ZM61.8381 185.991L61.8232 187.491C61.8929 187.492 61.9547 187.488 62.0063 187.482C62.0577 187.476 62.1013 187.469 62.1346 187.462C62.1676 187.456 62.1943 187.45 62.2107 187.445C62.2191 187.443 62.226 187.442 62.2305 187.44C62.2346 187.439 62.2382 187.438 62.2385 187.438C62.2397 187.438 62.2376 187.439 62.2349 187.439C62.232 187.44 62.2266 187.441 62.2197 187.443C62.2063 187.446 62.1826 187.452 62.1525 187.458C62.1222 187.464 62.0815 187.471 62.0331 187.476C61.9844 187.482 61.9256 187.486 61.8588 187.485L61.8737 185.985L61.8886 184.485C61.8188 184.484 61.757 184.488 61.7054 184.494C61.654 184.5 61.6104 184.507 61.5771 184.514C61.5441 184.52 61.5174 184.526 61.5011 184.531C61.4927 184.533 61.4858 184.534 61.4813 184.536C61.4772 184.537 61.4736 184.538 61.4733 184.538C61.4721 184.538 61.4743 184.537 61.4769 184.537C61.4799 184.536 61.4853 184.535 61.4922 184.533C61.5057 184.529 61.5294 184.524 61.5595 184.518C61.5898 184.512 61.6305 184.505 61.6789 184.5C61.7275 184.494 61.7863 184.49 61.853 184.491L61.8381 185.991ZM60.6447 185.979L60.614 188.979H60.6144L60.6447 185.979ZM61.8381 185.991L61.8078 188.991H61.8083L61.8381 185.991ZM389.895 350.047L389.932 347.047V347.047L389.895 350.047ZM380.686 356.42L383.686 356.398L377.686 356.442L380.686 356.42ZM380.716 360.379L377.716 360.402V360.402L380.716 360.379ZM380.053 397.002L379.772 394.015L380.333 399.988L380.053 397.002ZM380.165 396.99L380.469 399.975L379.864 394.005L380.165 396.99ZM380.124 396.995L379.816 394.01L379.816 394.01L380.124 396.995ZM406.376 2.52741L405.853 5.48141V5.48141L406.376 2.52741ZM410.654 3.18498L411.33 0.262116L411.149 0.220258L410.964 0.201052L410.654 3.18498ZM413.273 3.79071L414.035 0.889082L413.992 0.877829L413.949 0.867847L413.273 3.79071ZM516.164 82.0101L518.752 80.4924L518.752 80.4923L516.164 82.0101ZM537.095 189.584L534.134 189.104L534.131 189.122L534.128 189.141L537.095 189.584ZM536.527 193.477L539.496 193.906V193.906L536.527 193.477ZM535.226 202.045L538.15 202.719L538.17 202.629L538.185 202.539L535.226 202.045ZM526.682 231.483L529.478 232.573L529.481 232.563L529.485 232.553L526.682 231.483ZM462.115 311.263L460.494 308.739L460.492 308.74L462.115 311.263ZM412.247 332.137L411.496 329.233L409.35 329.788L409.25 332.002L412.247 332.137ZM412.105 341.029L409.105 341.027V341.027L412.105 341.029ZM411.998 348.919L414.222 350.933L414.953 350.125L414.996 349.036L411.998 348.919ZM411.018 350.002L411.119 353L412.389 352.957L413.241 352.016L411.018 350.002ZM380.644 349.958L380.655 346.958L377.629 346.947L377.645 349.973L380.644 349.958ZM380.626 396.954L380.8 399.949L383.559 399.789L383.625 397.026L380.626 396.954ZM379.908 397.005L379.566 399.985L379.566 399.985L379.908 397.005ZM379.666 396.931L378.632 399.748L378.632 399.748L379.666 396.931ZM379.402 396.837L377.912 399.441L378.155 399.58L378.42 399.672L379.402 396.837ZM354.143 381.527L352.558 384.074H352.558L354.143 381.527ZM338.91 372.139L340.461 369.571L338.936 368.65L337.397 369.549L338.91 372.139ZM317.818 384.958L316.238 382.408V382.408L317.818 384.958ZM297.677 397.222L294.677 397.224L294.681 402.462L299.197 399.809L297.677 397.222ZM297.636 335.453L300.636 335.451L300.634 331.881L297.117 332.499L297.636 335.453ZM282.914 335.758L282.892 338.758H282.892L282.914 335.758ZM280.857 335.746L280.852 338.746H280.852L280.857 335.746ZM248.128 335.692L248.132 332.692H248.127L248.128 335.692ZM20.1201 335.722L20.1197 332.722H20.1171L20.1201 335.722ZM16.0637 335.758L16.0991 338.757H16.0991L16.0637 335.758ZM0.000912385 335.434L-2.99909 335.431L-3.00137 338.032L-0.427254 338.403L0.000912385 335.434ZM0.0230118 310.268L-0.497857 307.314L-2.97478 307.75L-2.97699 310.265L0.0230118 310.268ZM16.363 309.949L16.3867 306.949H16.3867L16.363 309.949ZM19.1828 309.966L19.1831 306.966H19.1828V309.966ZM104.398 309.975L104.398 312.975H104.403L104.398 309.975ZM128.37 309.936L128.371 306.936H128.365L128.37 309.936ZM247.977 309.995L247.976 312.995H247.98L247.977 309.995ZM281.405 309.956L281.408 312.956H281.409L281.405 309.956ZM283.819 309.938L283.791 306.938H283.791L283.819 309.938ZM297.618 310.224L297.093 313.178L300.572 313.796L300.617 310.263L297.618 310.224ZM297.68 285.699L300.68 285.691V285.691L297.68 285.699ZM297.664 273.685L300.664 273.688L300.667 270.761L297.741 270.686L297.664 273.685ZM228.508 273.457L228.486 270.457H228.484L228.508 273.457ZM228.496 273.457L228.518 276.457H228.52L228.496 273.457ZM196.409 273.616L196.41 276.616H196.41L196.409 273.616ZM0 273.631L-3 273.629L-3.00167 276.631L0.000223277 276.631L0 273.631ZM0.0142727 248.051L0.0140968 245.051L-2.98405 245.051L-2.98573 248.049L0.0142727 248.051ZM332.921 248.031L332.921 251.031H332.922L332.921 248.031ZM342.806 248.022L342.809 251.022V251.022L342.806 248.022ZM380.06 248.129L380.094 245.129L380.092 245.129L380.06 248.129ZM392.176 258.361L395.136 257.875L395.135 257.864L395.132 257.852L392.176 258.361ZM390.137 267.813L387.65 266.135L387.644 266.143L387.638 266.152L390.137 267.813ZM380.239 273.665L379.767 270.703L377.238 271.106L377.239 273.667L380.239 273.665ZM380.262 310.034L377.262 310.036L377.264 313.086L380.314 313.033L380.262 310.034ZM412.597 295.958L410.458 293.854L410.45 293.863L410.442 293.871L412.597 295.958ZM426.688 260.868L423.688 260.865V260.873L426.688 260.868ZM412.799 225.918L410.628 227.989L410.636 227.997L410.644 228.005L412.799 225.918ZM366.248 211.459L366.209 208.459H366.209L366.248 211.459ZM160.682 211.516L160.663 214.516L160.673 214.516H160.682V211.516ZM154.416 211.477L154.435 208.477L154.426 208.477H154.417L154.416 211.477ZM142.344 211.472L142.345 208.472L142.304 208.472L142.264 208.473L142.344 211.472ZM1.04957 211.272L-1.80353 212.2L-1.38411 213.49L-0.137953 214.027L1.04957 211.272ZM0.756342 210.37L-1.93026 209.035L-2.47542 210.132L-2.09677 211.297L0.756342 210.37ZM1.83721 208.195L-0.795631 206.757L-0.82351 206.808L-0.849389 206.86L1.83721 208.195ZM11.0652 191.3L8.43436 189.859L8.43233 189.862L11.0652 191.3ZM14.9914 184.137L12.3893 182.643L12.3747 182.669L12.3606 182.695L14.9914 184.137ZM15.6838 182.93L18.2858 184.423L18.3131 184.375L18.3386 184.327L15.6838 182.93ZM52.8321 114.575L50.2058 113.125V113.125L52.8321 114.575ZM88.1057 49.7746L86.7915 47.0778L85.9114 47.5067L85.4538 48.3721L88.1057 49.7746ZM88.456 49.6039L89.7703 52.3007L91.1796 51.6139L91.4204 50.0648L88.456 49.6039ZM88.6517 48.3456L86.5143 46.2405L85.8358 46.9294L85.6873 47.8847L88.6517 48.3456ZM89.4702 47.5146L91.6076 49.6197L91.9443 49.2778L92.1575 48.848L89.4702 47.5146ZM107.188 14.6359L104.568 13.1751V13.1751L107.188 14.6359ZM115.216 0.131408L115.192 -2.8685L113.426 -2.85433L112.581 -1.3034L115.216 0.131408ZM126.892 0.0377751L126.947 -2.96173L126.907 -2.96244L126.868 -2.96213L126.892 0.0377751ZM128.691 0.0704422L128.637 3.06995L128.663 3.07043L128.69 3.07044L128.691 0.0704422ZM216.519 0.101166L216.518 3.10117L216.52 3.10117L216.519 0.101166ZM231.315 0.152486L231.33 -2.84747L231.315 0.152486ZM262.346 0.0777573L262.351 -2.92224L262.322 -2.92229L262.292 -2.92175L262.346 0.0777573ZM280.378 0.107018L280.373 3.10702L280.379 3.10702L280.378 0.107018ZM348.481 0.0933594L348.481 -2.90664L348.48 -2.90664L348.481 0.0933594ZM358.311 0.046804L358.333 3.04673V3.04673L358.311 0.046804ZM403.85 2.1008L403.4 5.0669L403.401 5.0669L403.85 2.1008ZM41.6603 186.238L39.0254 184.803L36.4024 189.621L41.8743 189.23L41.6603 186.238ZM115.889 49.8886L113.276 48.4156L113.265 48.4348L113.254 48.4542L115.889 49.8886ZM116.954 47.9987L119.568 49.4718L119.579 49.4524L119.589 49.433L116.954 47.9987ZM127.093 29.3716L124.475 27.9066L124.467 27.9219L124.458 27.9373L127.093 29.3716ZM129.223 25.565L129.224 22.565L127.465 22.5644L126.605 24.1L129.223 25.565ZM231.542 25.5967L231.541 28.5967H231.542L231.542 25.5967ZM247.989 25.6629L247.971 28.6628V28.6628L247.989 25.6629ZM286.146 25.484L286.207 22.4846L286.135 22.4832L286.064 22.4851L286.146 25.484ZM323.567 25.5773L323.586 28.5772V28.5772L323.567 25.5773ZM352.881 25.5513L352.911 22.5514L352.911 22.5514L352.881 25.5513ZM362.807 25.5515L362.793 22.5515V22.5515L362.807 25.5515ZM410.631 29.4003L409.766 32.273L409.849 32.2981L409.934 32.3183L410.631 29.4003ZM412.514 29.85L413.315 26.959L413.263 26.9446L413.211 26.9321L412.514 29.85ZM513.015 188.99L515.971 189.503L515.983 189.432L515.992 189.361L513.015 188.99ZM509.282 207.523L512.112 208.518L512.171 208.349L512.21 208.174L509.282 207.523ZM507.172 213.826L510.024 214.755V214.755L507.172 213.826ZM502.28 227.032L505.021 228.252L505.021 228.252L502.28 227.032ZM444.088 292.966L441.287 291.891L438.115 300.165L445.661 295.521L444.088 292.966ZM428.63 206.485L430.807 204.421L430.758 204.368L430.705 204.318L428.63 206.485ZM415.971 196.54L414.154 198.927L414.287 199.029L414.431 199.115L415.971 196.54ZM415.676 196.316L417.493 193.929L417.442 193.889L417.388 193.852L415.676 196.316ZM402.429 189.891L403.54 187.104V187.104L402.429 189.891ZM401.139 189.376L402.256 186.591L402.073 186.518L401.882 186.469L401.139 189.376ZM394.459 187.669L395.202 184.762L395.147 184.748L395.092 184.736L394.459 187.669ZM348.566 185.958L348.598 188.958V188.958L348.566 185.958ZM339.743 186.029L339.743 189.029H339.746L339.743 186.029ZM66.9085 186.025L66.9062 189.025H66.9084L66.9085 186.025ZM358.065 62.0824L358.065 59.0824H358.064L358.065 62.0824ZM149.061 62.1107L149.061 59.1107L147.28 59.1109L146.428 60.6739L149.061 62.1107ZM134.005 89.4867L131.379 88.0366V88.0366L134.005 89.4867ZM101.475 149.508L98.8151 148.121L96.5283 152.508L101.475 152.508L101.475 149.508ZM353.139 149.509V152.509H353.141L353.139 149.509ZM360.659 149.467L360.635 146.467H360.635L360.659 149.467ZM402.98 152.249L403.668 149.329L403.66 149.327L403.651 149.324L402.98 152.249ZM454.69 182.51L452.498 184.558L452.5 184.56L454.69 182.51ZM465.204 195.472L467.739 193.867L467.682 193.777L467.619 193.692L465.204 195.472ZM465.895 196.562L468.429 194.955L468.428 194.955L465.895 196.562ZM472.593 208.109L469.898 209.427L473.146 216.069L475.444 209.041L472.593 208.109ZM474.379 202.646L471.56 201.618L471.543 201.666L471.527 201.714L474.379 202.646ZM476.796 194.238L473.879 193.536L473.876 193.547L473.874 193.559L476.796 194.238ZM478.103 188.81L481.019 189.512L481.048 189.394L481.067 189.273L478.103 188.81ZM470.19 122.105L472.924 120.87L472.922 120.867L470.19 122.105ZM413.269 68.1529L412.181 70.949L412.204 70.9578L412.227 70.9662L413.269 68.1529ZM410.576 67.1058L411.663 64.3097L411.563 64.271L411.461 64.2394L410.576 67.1058ZM364.742 62.059L364.725 59.059V59.059L364.742 62.059ZM380.716 360.351L383.716 360.327C383.706 359.012 383.696 357.702 383.686 356.398L380.686 356.42L377.686 356.442C377.696 357.747 377.706 359.058 377.716 360.374L380.716 360.351ZM380.686 356.42L377.686 356.442C377.696 357.757 377.706 359.077 377.716 360.402L380.716 360.379L383.716 360.356C383.706 359.031 383.696 357.711 383.686 356.398L380.686 356.42ZM380.053 397.002L380.333 399.988C380.38 399.984 380.446 399.977 380.469 399.975L380.165 396.99L379.861 394.006C379.795 394.012 379.788 394.013 379.772 394.015L380.053 397.002ZM380.165 396.99L379.864 394.005C379.847 394.007 379.828 394.009 379.819 394.01L380.124 396.995L380.429 399.979C380.445 399.977 380.454 399.976 380.466 399.975L380.165 396.99ZM380.124 396.995L379.816 394.01C379.801 394.012 379.792 394.013 379.783 394.014C379.779 394.014 379.777 394.014 379.775 394.015C379.773 394.015 379.772 394.015 379.772 394.015L380.053 397.002L380.334 399.988C380.372 399.985 380.411 399.981 380.432 399.979L380.124 396.995ZM406.376 2.52741L405.853 5.48141C407.274 5.73314 408.848 6.01338 410.344 6.16891L410.654 3.18498L410.964 0.201052C409.721 0.0718986 408.367 -0.16655 406.9 -0.426583L406.376 2.52741ZM410.654 3.18498L409.978 6.10784L412.597 6.71357L413.273 3.79071L413.949 0.867847L411.33 0.262116L410.654 3.18498ZM413.273 3.79071L412.511 6.69234C457.106 18.4025 489.012 41.6454 513.576 83.5278L516.164 82.0101L518.752 80.4923C493.369 37.2154 460.137 12.9949 414.035 0.889082L413.273 3.79071ZM516.164 82.0101L513.576 83.5277C530.447 112.296 539.557 155.66 534.134 189.104L537.095 189.584L540.057 190.064C545.719 155.144 536.277 110.377 518.752 80.4924L516.164 82.0101ZM537.095 189.584L534.128 189.141C533.935 190.434 533.746 191.743 533.558 193.048L536.527 193.477L539.496 193.906C539.685 192.598 539.872 191.303 540.063 190.026L537.095 189.584ZM536.527 193.477L533.558 193.048C533.143 195.923 532.729 198.784 532.267 201.551L535.226 202.045L538.185 202.539C538.66 199.696 539.083 196.769 539.496 193.906L536.527 193.477ZM535.226 202.045L532.303 201.371C529.693 212.696 527.975 219.685 523.88 230.413L526.682 231.483L529.485 232.553C533.731 221.432 535.521 214.121 538.15 202.719L535.226 202.045ZM526.682 231.483L523.887 230.393C511.16 263.033 488.939 290.472 460.494 308.739L462.115 311.263L463.736 313.787C493.285 294.812 516.307 266.35 529.478 232.573L526.682 231.483ZM462.115 311.263L460.492 308.74C443.737 319.517 430.421 324.338 411.496 329.233L412.247 332.137L412.998 335.041C432.317 330.045 446.281 325.015 463.738 313.786L462.115 311.263ZM412.247 332.137L409.25 332.002C409.109 335.124 409.107 338.129 409.105 341.027L412.105 341.029L415.105 341.031C415.107 338.115 415.11 335.241 415.244 332.272L412.247 332.137ZM412.105 341.029L409.105 341.027C409.103 343.672 409.101 346.228 409 348.802L411.998 348.919L414.996 349.036C415.101 346.328 415.103 343.658 415.105 341.031L412.105 341.029ZM411.998 348.919L409.775 346.905L408.794 347.988L411.018 350.002L413.241 352.016L414.222 350.933L411.998 348.919ZM411.018 350.002L410.916 347.004C404.323 347.227 397.061 347.137 389.932 347.047L389.895 350.047L389.857 353.047C396.954 353.136 404.361 353.229 411.119 353L411.018 350.002ZM389.895 350.047L389.932 347.047C386.786 347.008 383.656 346.969 380.655 346.958L380.644 349.958L380.634 352.958C383.603 352.968 386.705 353.007 389.857 353.047L389.895 350.047ZM380.644 349.958L377.645 349.973C377.662 353.389 377.689 356.867 377.716 360.374L380.716 360.351L383.716 360.327C383.689 356.819 383.662 353.349 383.644 349.943L380.644 349.958ZM380.716 360.379L377.716 360.402C377.811 372.606 377.908 385.163 377.627 396.882L380.626 396.954L383.625 397.026C383.909 385.194 383.81 372.54 383.716 360.356L380.716 360.379ZM380.626 396.954L380.452 393.959C380.142 393.977 379.94 393.998 379.816 394.01L380.124 396.995L380.431 399.979C380.515 399.97 380.617 399.959 380.8 399.949L380.626 396.954ZM380.124 396.995L379.816 394.01C379.785 394.013 379.776 394.014 379.771 394.015C379.766 394.015 379.786 394.013 379.818 394.012C379.888 394.007 380.046 394.001 380.249 394.024L379.908 397.005L379.566 399.985C379.823 400.015 380.037 400.009 380.175 400.001C380.288 399.994 380.403 399.982 380.432 399.979L380.124 396.995ZM379.908 397.005L380.249 394.025C380.476 394.051 380.645 394.1 380.715 394.122C380.746 394.132 380.764 394.139 380.755 394.136C380.747 394.132 380.733 394.128 380.699 394.115L379.666 396.931L378.632 399.748C378.669 399.761 378.788 399.806 378.905 399.843C379.05 399.889 379.279 399.953 379.566 399.985L379.908 397.005ZM379.666 396.931L380.699 394.115C380.629 394.089 380.524 394.051 380.383 394.002L379.402 396.837L378.42 399.672C378.507 399.702 378.57 399.725 378.632 399.748L379.666 396.931ZM379.402 396.837L380.891 394.233C372.813 389.612 364.241 384.278 355.728 378.98L354.143 381.527L352.558 384.074C361.05 389.359 369.72 394.755 377.912 399.441L379.402 396.837ZM354.143 381.527L355.728 378.98C350.565 375.767 345.424 372.568 340.461 369.571L338.91 372.139L337.36 374.707C342.282 377.68 347.388 380.857 352.558 384.074L354.143 381.527ZM338.91 372.139L337.397 369.549C330.316 373.684 323.263 378.055 316.238 382.408L317.818 384.958L319.398 387.508C326.435 383.148 333.421 378.819 340.423 374.73L338.91 372.139ZM317.818 384.958L316.238 382.408C309.541 386.558 302.865 390.694 296.158 394.636L297.677 397.222L299.197 399.809C305.976 395.826 312.711 391.652 319.398 387.508L317.818 384.958ZM297.677 397.222L300.677 397.22L300.636 335.451L297.636 335.453L294.636 335.455L294.677 397.224L297.677 397.222ZM297.636 335.453L297.117 332.499C296.284 332.645 293.983 332.735 291.042 332.767C288.225 332.797 285.136 332.775 282.936 332.758L282.914 335.758L282.892 338.758C285.083 338.774 288.226 338.798 291.107 338.767C293.865 338.737 296.73 338.659 298.155 338.408L297.636 335.453ZM282.914 335.758L282.936 332.758C282.096 332.752 281.377 332.747 280.861 332.746L280.857 335.746L280.852 338.746C281.346 338.747 282.044 338.752 282.892 338.758L282.914 335.758ZM280.857 335.746L280.862 332.746L248.132 332.692L248.128 335.692L248.123 338.692L280.852 338.746L280.857 335.746ZM248.128 335.692L248.127 332.692L20.1197 332.722L20.1201 335.722L20.1204 338.722L248.128 338.692L248.128 335.692ZM20.1201 335.722L20.1171 332.722C18.9921 332.723 17.5753 332.74 16.0283 332.758L16.0637 335.758L16.0991 338.757C17.658 338.739 19.0377 338.723 20.123 338.722L20.1201 335.722ZM16.0637 335.758L16.0283 332.758C10.4424 332.824 3.42263 332.896 0.429079 332.465L0.000912385 335.434L-0.427254 338.403C3.15653 338.92 10.8082 338.82 16.0991 338.757L16.0637 335.758ZM0.000912385 335.434L3.00091 335.437L3.02301 310.271L0.0230118 310.268L-2.97699 310.265L-2.99909 335.431L0.000912385 335.434ZM0.0230118 310.268L0.543881 313.222C1.46143 313.061 3.97839 312.964 7.21183 312.932C10.3202 312.901 13.77 312.928 16.3394 312.949L16.363 309.949L16.3867 306.949C13.8267 306.929 10.3231 306.901 7.15209 306.932C4.10617 306.963 1.01781 307.046 -0.497857 307.314L0.0230118 310.268ZM16.363 309.949L16.3393 312.949C17.5021 312.958 18.4964 312.966 19.1828 312.966V309.966V306.966C18.526 306.966 17.5608 306.958 16.3867 306.949L16.363 309.949ZM19.1828 309.966L19.1825 312.966L104.398 312.975L104.398 309.975L104.398 306.975L19.1831 306.966L19.1828 309.966ZM104.398 309.975L104.403 312.975L128.375 312.936L128.37 309.936L128.365 306.936L104.393 306.975L104.398 309.975ZM128.37 309.936L128.368 312.936L247.976 312.995L247.977 309.995L247.978 306.995L128.371 306.936L128.37 309.936ZM247.977 309.995L247.98 312.995L281.408 312.956L281.405 309.956L281.401 306.956L247.973 306.995L247.977 309.995ZM281.405 309.956L281.409 312.956C282.024 312.955 282.873 312.947 283.847 312.938L283.819 309.938L283.791 306.938C282.807 306.947 281.986 306.955 281.4 306.956L281.405 309.956ZM283.819 309.938L283.847 312.938C286.032 312.917 288.897 312.891 291.49 312.918C294.196 312.946 296.281 313.033 297.093 313.178L297.618 310.224L298.143 307.27C296.737 307.021 294.102 306.945 291.553 306.918C288.89 306.89 285.965 306.918 283.791 306.938L283.819 309.938ZM297.618 310.224L300.617 310.263C300.723 302.142 300.701 293.882 300.68 285.691L297.68 285.699L294.68 285.707C294.701 293.906 294.723 302.119 294.618 310.185L297.618 310.224ZM297.68 285.699L300.68 285.691C300.67 281.67 300.659 277.66 300.664 273.688L297.664 273.685L294.664 273.681C294.659 277.666 294.67 281.687 294.68 285.707L297.68 285.699ZM297.664 273.685L297.741 270.686C275.461 270.113 251.714 270.287 228.486 270.457L228.508 273.457L228.53 276.456C251.779 276.286 275.424 276.114 297.587 276.684L297.664 273.685ZM228.508 273.457L228.484 270.457L228.472 270.457L228.496 273.457L228.52 276.457L228.531 276.456L228.508 273.457ZM228.496 273.457L228.474 270.457C217.611 270.536 206.86 270.615 196.409 270.616L196.409 273.616L196.41 276.616C206.886 276.615 217.659 276.536 228.518 276.457L228.496 273.457ZM196.409 273.616L196.409 270.616L-0.000223277 270.631L0 273.631L0.000223277 276.631L196.41 276.616L196.409 273.616ZM0 273.631L3 273.633L3.01427 248.052L0.0142727 248.051L-2.98573 248.049L-3 273.629L0 273.631ZM0.0142727 248.051L0.0144485 251.051L332.921 251.031L332.921 248.031L332.921 245.031L0.0140968 245.051L0.0142727 248.051ZM332.921 248.031L332.922 251.031C336.218 251.03 339.514 251.026 342.809 251.022L342.806 248.022L342.802 245.022C339.507 245.026 336.213 245.03 332.92 245.031L332.921 248.031ZM342.806 248.022L342.809 251.022C355.229 251.008 367.637 250.994 380.027 251.128L380.06 248.129L380.092 245.129C367.66 244.994 355.216 245.008 342.802 245.022L342.806 248.022ZM380.06 248.129L380.026 251.128C384.241 251.176 388.46 254.459 389.22 258.87L392.176 258.361L395.132 257.852C393.848 250.392 387.001 245.208 380.094 245.129L380.06 248.129ZM392.176 258.361L389.216 258.846C389.637 261.415 389.061 264.043 387.65 266.135L390.137 267.813L392.624 269.491C394.904 266.11 395.802 261.93 395.136 257.875L392.176 258.361ZM390.137 267.813L387.638 266.152C386.498 267.867 385.457 268.782 384.376 269.371C383.241 269.99 381.848 270.371 379.767 270.703L380.239 273.665L380.712 276.628C383.004 276.262 385.206 275.753 387.249 274.638C389.348 273.494 391.068 271.83 392.635 269.473L390.137 267.813ZM380.239 273.665L377.239 273.667L377.262 310.036L380.262 310.034L383.262 310.032L383.239 273.663L380.239 273.665ZM380.262 310.034L380.314 313.033C393.633 312.805 405.195 307.911 414.751 298.046L412.597 295.958L410.442 293.871C401.999 302.588 391.953 306.833 380.211 307.034L380.262 310.034ZM412.597 295.958L414.735 298.063C424.329 288.313 429.712 274.867 429.688 260.862L426.688 260.868L423.688 260.873C423.709 273.351 418.91 285.266 410.458 293.854L412.597 295.958ZM426.688 260.868L429.688 260.871C429.702 246.958 424.408 233.594 414.954 223.831L412.799 225.918L410.644 228.005C418.978 236.61 423.701 248.46 423.688 260.865L426.688 260.868ZM412.799 225.918L414.97 223.848C399.797 207.94 383.753 208.233 366.209 208.459L366.248 211.459L366.286 214.459C383.921 214.232 397.424 214.145 410.628 227.989L412.799 225.918ZM366.248 211.459L366.209 208.459C364.005 208.488 361.778 208.516 359.506 208.516V211.516V214.516C361.822 214.516 364.087 214.487 366.286 214.459L366.248 211.459ZM359.506 211.516V208.516H160.682V211.516V214.516H359.506V211.516ZM160.682 211.516L160.701 208.516L154.435 208.477L154.416 211.477L154.398 214.477L160.663 214.516L160.682 211.516ZM154.416 211.477L154.417 208.477L142.345 208.472L142.344 211.472L142.343 214.472L154.415 214.477L154.416 211.477ZM142.344 211.472L142.264 208.473C136.572 208.626 101.802 208.793 68.1438 208.813C51.3283 208.823 34.8144 208.796 22.3817 208.713C16.1634 208.671 10.9767 208.616 7.28675 208.543C5.4388 208.507 3.98472 208.467 2.97054 208.424C2.45961 208.402 2.08845 208.38 1.84535 208.36C1.78681 208.355 1.74106 208.351 1.70659 208.348C1.68959 208.346 1.67663 208.344 1.66733 208.343C1.65791 208.342 1.65374 208.341 1.65412 208.342C1.65424 208.342 1.66184 208.343 1.67553 208.345C1.68861 208.347 1.71374 208.352 1.74789 208.359C1.77483 208.365 1.97983 208.406 2.2371 208.517L1.04957 211.272L-0.137953 214.027C0.316705 214.223 0.767839 214.276 0.816241 214.283C0.990512 214.307 1.17714 214.326 1.35365 214.34C1.71299 214.37 2.17515 214.395 2.71367 214.418C3.79838 214.465 5.30766 214.506 7.16932 214.542C10.8986 214.615 16.1161 214.671 22.3414 214.713C34.7958 214.796 51.3265 214.823 68.1474 214.813C101.761 214.793 136.632 214.626 142.424 214.471L142.344 211.472ZM1.04957 211.272L3.90268 210.345L3.60945 209.443L0.756342 210.37L-2.09677 211.297L-1.80353 212.2L1.04957 211.272ZM0.756342 210.37L3.44294 211.705L4.52381 209.53L1.83721 208.195L-0.849389 206.86L-1.93026 209.035L0.756342 210.37ZM1.83721 208.195L4.47006 209.633L13.698 192.739L11.0652 191.3L8.43233 189.862L-0.795631 206.757L1.83721 208.195ZM11.0652 191.3L13.696 192.742L17.6222 185.578L14.9914 184.137L12.3606 182.695L8.43437 189.859L11.0652 191.3ZM14.9914 184.137L17.5935 185.63L18.2858 184.423L15.6838 182.93L13.0817 181.437L12.3893 182.643L14.9914 184.137ZM15.6838 182.93L18.3386 184.327C30.3498 161.502 42.8946 138.78 55.4584 116.025L52.8321 114.575L50.2058 113.125C37.647 135.871 25.0728 158.645 13.0289 181.533L15.6838 182.93ZM52.8321 114.575L55.4584 116.025C67.363 94.4637 79.2846 72.8715 90.7577 51.1771L88.1057 49.7746L85.4538 48.3721C74.0102 70.0107 62.1149 91.5556 50.2058 113.125L52.8321 114.575ZM88.1057 49.7746L89.42 52.4714L89.7703 52.3007L88.456 49.6039L87.1418 46.9071L86.7915 47.0778L88.1057 49.7746ZM88.456 49.6039L91.4204 50.0648L91.6161 48.8065L88.6517 48.3456L85.6873 47.8847L85.4917 49.143L88.456 49.6039ZM88.6517 48.3456L90.7891 50.4507L91.6076 49.6197L89.4702 47.5146L87.3328 45.4095L86.5143 46.2405L88.6517 48.3456ZM89.4702 47.5146L92.1575 48.848C97.0749 38.9381 103.617 27.2012 109.808 16.0967L107.188 14.6359L104.568 13.1751C98.3974 24.2427 91.7773 36.1157 86.7828 46.1811L89.4702 47.5146ZM107.188 14.6359L109.808 16.0967C112.631 11.0346 115.379 6.10496 117.851 1.56622L115.216 0.131408L112.581 -1.3034C110.127 3.20428 107.393 8.10667 104.568 13.1751L107.188 14.6359ZM115.216 0.131408L115.24 3.13131L126.916 3.03768L126.892 0.0377751L126.868 -2.96213L115.192 -2.8685L115.216 0.131408ZM126.892 0.0377751L126.838 3.03728L128.637 3.06995L128.691 0.0704422L128.746 -2.92906L126.947 -2.96173L126.892 0.0377751ZM128.691 0.0704422L128.69 3.07044L216.518 3.10117L216.519 0.101166L216.52 -2.89883L128.692 -2.92956L128.691 0.0704422ZM216.519 0.101166L216.52 3.10117C221.388 3.10069 226.328 3.12648 231.299 3.15245L231.315 0.152486L231.33 -2.84747C226.362 -2.87342 221.407 -2.89931 216.519 -2.89883L216.519 0.101166ZM231.315 0.152486L231.299 3.15245C241.678 3.20666 252.198 3.26174 262.401 3.07727L262.346 0.0777573L262.292 -2.92175C252.172 -2.73876 241.722 -2.79319 231.33 -2.84747L231.315 0.152486ZM262.346 0.0777573L262.342 3.07775L280.373 3.10701L280.378 0.107018L280.383 -2.89298L262.351 -2.92224L262.346 0.0777573ZM280.378 0.107018L280.379 3.10702L348.481 3.09336L348.481 0.0933594L348.48 -2.90664L280.377 -2.89298L280.378 0.107018ZM348.481 0.0933594L348.48 3.09336C351.761 3.09388 355.05 3.07027 358.333 3.04673L358.311 0.046804L358.29 -2.95312C355.004 -2.92955 351.736 -2.90612 348.481 -2.90664L348.481 0.0933594ZM358.311 0.046804L358.333 3.04673C373.586 2.93732 388.682 2.83533 403.4 5.0669L403.85 2.1008L404.3 -0.865305C389.034 -3.17992 373.46 -3.06193 358.29 -2.95312L358.311 0.046804ZM403.85 2.1008L403.401 5.0669C404.176 5.18454 404.989 5.3283 405.853 5.48141L406.376 2.52741L406.9 -0.426583C406.05 -0.577097 405.163 -0.734502 404.3 -0.86531L403.85 2.1008ZM41.6603 186.238L44.2951 187.672L118.524 51.323L115.889 49.8886L113.254 48.4542L39.0254 184.803L41.6603 186.238ZM115.889 49.8886L118.503 51.3616L119.568 49.4718L116.954 47.9987L114.341 46.5257L113.276 48.4156L115.889 49.8886ZM116.954 47.9987L119.589 49.433L129.728 30.8058L127.093 29.3716L124.458 27.9373L114.319 46.5645L116.954 47.9987ZM127.093 29.3716L129.711 30.8365L131.841 27.0299L129.223 25.565L126.605 24.1L124.475 27.9066L127.093 29.3716ZM129.223 25.565L129.222 28.565L231.541 28.5967L231.542 25.5967L231.542 22.5967L129.224 22.565L129.223 25.565ZM231.542 25.5967L231.542 28.5967C236.895 28.5955 242.399 28.6289 247.971 28.6628L247.989 25.6629L248.007 22.6629C242.439 22.6291 236.915 22.5955 231.541 22.5967L231.542 25.5967ZM247.989 25.6629L247.971 28.6628C260.768 28.7407 273.923 28.821 286.228 28.4829L286.146 25.484L286.064 22.4851C273.877 22.82 260.826 22.7409 248.007 22.6629L247.989 25.6629ZM286.146 25.484L286.085 28.4834C298.542 28.7347 311.094 28.6557 323.586 28.5772L323.567 25.5773L323.549 22.5773C311.042 22.6559 298.57 22.7341 286.207 22.4846L286.146 25.484ZM323.567 25.5773L323.586 28.5772C333.389 28.5156 343.154 28.4543 352.852 28.5511L352.881 25.5513L352.911 22.5514C343.157 22.4541 333.342 22.5158 323.549 22.5773L323.567 25.5773ZM352.881 25.5513L352.851 28.5511C355.968 28.5823 359.331 28.5671 362.82 28.5515L362.807 25.5515L362.793 22.5515C359.294 22.5672 355.976 22.5821 352.911 22.5514L352.881 25.5513ZM362.807 25.5515L362.82 28.5515C378.685 28.4803 396.991 28.427 409.766 32.273L410.631 29.4003L411.496 26.5277C397.672 22.3661 378.338 22.4818 362.793 22.5515L362.807 25.5515ZM410.631 29.4003L409.934 32.3183L411.817 32.7679L412.514 29.85L413.211 26.9321L411.328 26.4824L410.631 29.4003ZM412.514 29.85L411.713 32.741C478.438 51.2337 519.083 115.996 510.038 188.62L513.015 188.99L515.992 189.361C525.37 114.065 483.172 46.3195 413.315 26.959L412.514 29.85ZM513.015 188.99L510.059 188.478C508.952 194.86 507.766 200.515 506.353 206.873L509.282 207.523L512.21 208.174C513.633 201.773 514.841 196.016 515.971 189.503L513.015 188.99ZM509.282 207.523L506.452 206.529C505.643 208.829 504.964 210.916 504.319 212.898L507.172 213.826L510.024 214.755C510.671 212.768 511.33 210.743 512.112 208.518L509.282 207.523ZM507.172 213.826L504.319 212.898C502.926 217.18 501.681 220.999 499.539 225.812L502.28 227.032L505.021 228.252C507.302 223.126 508.629 219.042 510.024 214.755L507.172 213.826ZM502.28 227.032L499.539 225.812C486.439 255.239 468.674 274.312 442.516 290.411L444.088 292.966L445.661 295.521C472.773 278.835 491.393 258.862 505.021 228.252L502.28 227.032ZM444.088 292.966L446.889 294.04C459.422 261.361 454.934 229.87 430.807 204.421L428.63 206.485L426.453 208.549C448.812 232.134 453.089 261.119 441.287 291.891L444.088 292.966ZM428.63 206.485L430.705 204.318C426.346 200.142 422.753 197.102 417.511 193.966L415.971 196.54L414.431 199.115C419.15 201.938 422.38 204.653 426.555 208.651L428.63 206.485ZM415.971 196.54L417.788 194.153L417.493 193.929L415.676 196.316L413.859 198.703L414.154 198.927L415.971 196.54ZM415.676 196.316L417.388 193.852C413.19 190.935 407.923 188.852 403.54 187.104L402.429 189.891L401.318 192.678C405.853 194.486 410.437 196.328 413.964 198.78L415.676 196.316ZM402.429 189.891L403.54 187.104C403.105 186.931 402.677 186.76 402.256 186.591L401.139 189.376L400.022 192.16C400.45 192.332 400.884 192.505 401.318 192.678L402.429 189.891ZM401.139 189.376L401.882 186.469L395.202 184.762L394.459 187.669L393.716 190.575L400.396 192.282L401.139 189.376ZM394.459 187.669L395.092 184.736C389.913 183.619 381.901 183.152 373.523 182.967C365.073 182.78 355.982 182.878 348.534 182.958L348.566 185.958L348.598 188.958C356.064 188.878 365.056 188.781 373.391 188.965C381.799 189.151 389.277 189.62 393.827 190.601L394.459 187.669ZM348.566 185.958L348.534 182.958C345.208 182.994 342.218 183.026 339.74 183.029L339.743 186.029L339.746 189.029C342.259 189.026 345.282 188.994 348.598 188.958L348.566 185.958ZM339.743 186.029L339.743 183.029L66.9085 183.025L66.9085 186.025L66.9084 189.025L339.743 189.029L339.743 186.029ZM66.9085 186.025L66.9108 183.025C65.3327 183.023 63.6373 183.009 61.868 182.991L61.8381 185.991L61.8083 188.991C63.5791 189.009 65.2983 189.023 66.9062 189.025L66.9085 186.025ZM61.8381 185.991L61.8685 182.991L60.6751 182.979L60.6447 185.979L60.6144 188.979L61.8078 188.991L61.8381 185.991ZM60.6447 185.979L60.6754 182.979C54.3277 182.914 47.1346 182.839 41.4462 183.245L41.6603 186.238L41.8743 189.23C47.2663 188.844 54.1883 188.913 60.614 188.979L60.6447 185.979ZM358.065 62.0824L358.064 59.0824L149.061 59.1107L149.061 62.1107L149.061 65.1106L358.065 65.0824L358.065 62.0824ZM149.061 62.1107L146.428 60.6739C141.507 69.6924 136.46 78.8349 131.379 88.0366L134.005 89.4867L136.632 90.9367C141.711 81.7373 146.766 72.5815 151.695 63.5474L149.061 62.1107ZM134.005 89.4867L131.379 88.0366C120.339 108.032 109.142 128.311 98.8151 148.121L101.475 149.508L104.136 150.895C114.424 131.159 125.585 110.944 136.632 90.9367L134.005 89.4867ZM101.475 149.508L101.475 152.508L353.139 152.509V149.509V146.509L101.475 146.508L101.475 149.508ZM353.139 149.509L353.141 152.509C355.618 152.508 358.141 152.487 360.683 152.466L360.659 149.467L360.635 146.467C358.088 146.487 355.588 146.508 353.137 146.509L353.139 149.509ZM360.659 149.467L360.683 152.466C374.858 152.352 389.557 152.248 402.31 155.173L402.98 152.249L403.651 149.324C390.083 146.213 374.642 146.353 360.635 146.467L360.659 149.467ZM402.98 152.249L402.292 155.169C421.319 159.652 438.749 169.845 452.498 184.558L454.69 182.51L456.882 180.461C442.348 164.909 423.881 154.092 403.668 149.329L402.98 152.249ZM454.69 182.51L452.5 184.56C456.45 188.777 459.288 192.504 462.79 197.252L465.204 195.472L467.619 193.692C464.086 188.901 461.078 184.942 456.88 180.459L454.69 182.51ZM465.204 195.472L462.669 197.077C462.904 197.447 463.135 197.811 463.362 198.169L465.895 196.562L468.428 194.955C468.201 194.597 467.972 194.235 467.739 193.867L465.204 195.472ZM465.895 196.562L463.362 198.169C465.84 202.075 467.868 205.275 469.898 209.427L472.593 208.109L475.288 206.791C473.093 202.303 470.896 198.845 468.429 194.955L465.895 196.562ZM472.593 208.109L475.444 209.041L477.23 203.579L474.379 202.646L471.527 201.714L469.741 207.176L472.593 208.109ZM474.379 202.646L477.197 203.674C478.44 200.267 478.918 198.354 479.718 194.918L476.796 194.238L473.874 193.559C473.098 196.892 472.684 198.539 471.56 201.618L474.379 202.646ZM476.796 194.238L479.712 194.941L481.019 189.512L478.103 188.81L475.186 188.107L473.879 193.536L476.796 194.238ZM478.103 188.81L481.067 189.273C484.85 165.051 483.154 143.516 472.924 120.87L470.19 122.105L467.456 123.34C477.121 144.736 478.776 165.056 475.139 188.347L478.103 188.81ZM470.19 122.105L472.922 120.867C461.154 94.8861 440.084 74.8835 414.31 65.3396L413.269 68.1529L412.227 70.9662C436.428 79.9281 456.319 98.7532 467.457 123.342L470.19 122.105ZM413.269 68.1529L414.356 65.3569L411.663 64.3097L410.576 67.1058L409.488 69.9019L412.181 70.949L413.269 68.1529ZM410.576 67.1058L411.461 64.2394C394.132 58.8866 380.895 58.9718 364.725 59.059L364.742 62.059L364.758 65.0589C380.924 64.9717 393.33 64.9185 409.69 69.9722L410.576 67.1058ZM364.742 62.059L364.725 59.059C362.564 59.0707 360.353 59.0826 358.065 59.0824L358.065 62.0824L358.064 65.0824C360.371 65.0826 362.599 65.0706 364.758 65.0589L364.742 62.059Z" fill="black" mask="url(#path-1-inside-1_1_361)"/>
</svg>
