<svg width="21" height="21" viewBox="0 0 21 21" fill="none" xmlns="http://www.w3.org/2000/svg">
<path d="M14.0052 21.0077L7.00258 18.5568L1.57558 20.6576C1.18655 20.8132 0.826694 20.7695 0.496016 20.5263C0.165339 20.2832 0 19.9574 0 19.5489V3.20952C0 2.95665 0.0729436 2.73295 0.218831 2.53844C0.364718 2.34392 0.564097 2.19803 0.816968 2.10078L7.00258 0L14.0052 2.4509L19.4322 0.350129C19.8212 0.194516 20.1811 0.238282 20.5117 0.481428C20.8424 0.724573 21.0077 1.05039 21.0077 1.45887V17.7982C21.0077 18.0511 20.9348 18.2748 20.7889 18.4693C20.643 18.6638 20.4437 18.8097 20.1908 18.907L14.0052 21.0077ZM12.8381 18.1484V4.49332L8.16968 2.85939V16.5144L12.8381 18.1484ZM15.1723 18.1484L18.6736 16.9813V3.15116L15.1723 4.49332V18.1484ZM2.33419 17.8566L5.83549 16.5144V2.85939L2.33419 4.02649V17.8566Z" fill="black"/>
</svg>
