<svg width="420" height="310" viewBox="0 0 420 310" fill="none" xmlns="http://www.w3.org/2000/svg">
<path fill-rule="evenodd" clip-rule="evenodd" d="M295.56 280.994C295.563 279.976 295.567 278.962 295.571 277.953C295.567 278.97 295.563 279.991 295.56 281.016L295.56 280.994ZM294.721 309.339C294.746 309.337 294.774 309.334 294.809 309.331C294.797 309.332 294.787 309.333 294.776 309.334C294.756 309.336 294.738 309.338 294.721 309.339Z" fill="white"/>
<path fill-rule="evenodd" clip-rule="evenodd" d="M318.65 4.43178C319.77 4.6425 320.905 4.85608 321.968 4.97831L323.998 5.47006C359.124 15.0829 384.217 33.7287 403.244 66.8868C416.347 89.7239 423.165 123.893 418.557 150.284C418.397 151.277 418.24 152.282 418.081 153.291C417.734 155.506 417.384 157.742 416.995 159.907C414.86 168.674 413.435 174.189 410.098 182.603C399.745 208.176 381.924 229.597 359.232 243.744C345.845 252.103 335.205 255.793 320.305 259.449C320.171 261.804 320.143 264.077 320.116 266.326C320.091 268.365 320.067 270.386 319.964 272.428L319.192 273.257C314.004 273.373 308.306 273.237 302.781 273.105C300.335 273.047 297.915 272.989 295.596 272.954C295.579 275.593 295.569 278.28 295.56 280.994L295.56 281.016C295.525 290.449 295.49 300.201 295.167 309.307C294.975 309.316 294.857 309.327 294.776 309.334C294.694 309.342 294.651 309.346 294.608 309.34C294.562 309.334 294.516 309.317 294.421 309.281C294.37 309.262 294.305 309.237 294.217 309.206C287.938 305.534 281.287 301.308 274.728 297.139C270.743 294.607 266.791 292.095 262.976 289.743C257.469 292.861 251.977 296.164 246.477 299.472C241.241 302.62 235.995 305.775 230.722 308.78L231.234 260.999C229.476 261.286 223.205 261.169 219.793 261.105C219.138 261.093 218.588 261.082 218.195 261.077L192.768 260.746L15.6281 258.749C14.7695 258.74 13.683 258.741 12.4764 258.741C8.25064 258.743 2.55075 258.744 -4.84932e-05 258.348L0.23902 238.882C2.13318 238.572 8.95179 238.703 12.9365 238.78C13.8441 238.797 14.6052 238.812 15.127 238.818L81.3311 239.58L99.9552 239.762L192.878 240.866L218.848 241.132C219.315 241.137 219.964 241.138 220.725 241.14C224.111 241.147 229.723 241.159 231.442 241.483C231.595 235.223 231.651 228.852 231.707 222.513C231.734 219.403 231.761 216.297 231.8 213.219C214.542 212.58 196.13 212.505 178.074 212.43L178.065 212.43C169.626 212.396 161.265 212.361 153.136 212.27L0.544186 210.542L0.780828 190.754L259.418 193.687C261.977 193.716 264.537 193.742 267.097 193.768C276.744 193.867 286.398 193.966 296.039 194.18C300.359 194.279 304.621 197.602 305.362 202.203C305.755 204.769 305.153 207.396 303.695 209.496C301.556 212.622 299.357 213.435 295.954 213.935L295.651 242.068C305.388 242.013 313.822 238.574 320.896 231.467C327.986 224.454 332.054 214.69 332.152 204.447C332.279 194.269 328.499 184.472 321.671 177.29C310.779 165.657 299.299 165.673 285.632 165.693C283.921 165.695 282.176 165.698 280.394 165.677L125.926 163.916L121.059 163.831L111.68 163.72C102.755 163.856 3.46647 163.004 1.90945 162.314L1.68959 161.614L2.5485 159.941L9.86672 146.954L12.9802 141.447L13.5287 140.52C23.0745 122.946 33.0327 105.461 42.9922 87.9739C52.4328 71.3976 61.8747 54.8191 70.9678 38.1607L71.2415 38.0317L71.4045 37.0601L72.0478 36.4245C75.9861 28.7426 81.2033 19.6693 86.1028 11.1486C88.3414 7.2554 90.514 3.47697 92.4676 -8.83419e-05L101.54 0.0308841L102.937 0.0720849L171.171 0.873641C174.961 0.916476 178.804 0.980273 182.665 1.04437C190.733 1.1783 198.878 1.3135 206.774 1.26137L220.783 1.44369L273.692 2.03623C276.231 2.06557 278.779 2.07641 281.33 2.08728C293.149 2.13759 305.064 2.18831 316.692 4.0794C317.327 4.18274 317.986 4.30676 318.65 4.43178ZM33.6808 143.309L92.5518 38.4949L93.396 37.0424L101.437 22.7234L103.126 19.7977L182.617 20.7284C186.784 20.775 191.068 20.8497 195.395 20.9253C205.344 21.0989 215.524 21.2766 225.04 21.1248C234.679 21.4284 244.401 21.4784 254.112 21.5283C261.725 21.5675 269.332 21.6066 276.887 21.7678C279.288 21.8191 281.883 21.8371 284.598 21.8559C296.8 21.9405 311.421 22.0418 321.719 25.2567L323.178 25.6212C376.067 40.8664 407.663 92.4829 399.854 149.612C398.928 154.59 397.948 158.993 396.791 163.915C396.153 165.658 395.615 167.243 395.096 168.772C393.975 172.074 392.941 175.119 391.179 178.944C380.532 202.046 366.226 216.987 345.388 229.43C355.12 204.997 351.982 181.568 334.141 162.397C330.862 159.198 328.237 156.942 324.394 154.593L324.167 154.417C321.189 152.306 317.38 150.744 313.932 149.33C313.595 149.192 313.262 149.055 312.934 148.919L307.759 147.54C300.219 145.83 283.708 145.818 272.12 145.81C269.54 145.808 267.204 145.807 265.265 145.787L53.2982 143.367C52.0606 143.352 50.7343 143.326 49.3593 143.297L48.4322 143.277C43.4709 143.17 37.9885 143.051 33.6808 143.309Z" fill="white"/>
<path fill-rule="evenodd" clip-rule="evenodd" d="M118.216 48.2429L280.592 50.0719C282.376 50.0924 284.101 50.1028 285.779 50.1129C298.341 50.1886 308.303 50.2487 321.343 54.4227L323.426 55.2566C342.758 62.6353 358.498 77.834 367.173 97.4943C374.707 114.617 375.825 130.82 372.733 149.163L371.669 153.351C371.028 155.962 370.665 157.335 369.717 159.833L368.281 164.043C366.679 160.683 365.067 158.089 363.18 155.052C363.007 154.773 362.831 154.49 362.653 154.203C359.962 150.482 357.725 147.483 354.598 144.083C343.745 132.252 329.894 123.967 314.692 120.217C304.494 117.765 292.785 117.726 281.837 117.69C279.86 117.683 277.908 117.677 275.994 117.656L80.4753 115.427C88.6578 100.222 97.5214 84.6596 106.277 69.2859C110.305 62.2139 114.31 55.1815 118.216 48.2429Z" fill="white"/>
</svg>
