<svg width="54" height="54" viewBox="0 0 54 54" fill="none" xmlns="http://www.w3.org/2000/svg">
<path d="M0 13.3333V0H13.3333V5.33333H5.33333V13.3333H0ZM0 53.3333V40H5.33333V48H13.3333V53.3333H0ZM40 53.3333V48H48V40H53.3333V53.3333H40ZM48 13.3333V5.33333H40V0H53.3333V13.3333H48ZM41.3333 41.3333H45.3333V45.3333H41.3333V41.3333ZM41.3333 33.3333H45.3333V37.3333H41.3333V33.3333ZM37.3333 37.3333H41.3333V41.3333H37.3333V37.3333ZM33.3333 41.3333H37.3333V45.3333H33.3333V41.3333ZM29.3333 37.3333H33.3333V41.3333H29.3333V37.3333ZM37.3333 29.3333H41.3333V33.3333H37.3333V29.3333ZM33.3333 33.3333H37.3333V37.3333H33.3333V33.3333ZM29.3333 29.3333H33.3333V33.3333H29.3333V29.3333ZM45.3333 8V24H29.3333V8H45.3333ZM24 29.3333V45.3333H8V29.3333H24ZM24 8V24H8V8H24ZM20 41.3333V33.3333H12V41.3333H20ZM20 20V12H12V20H20ZM41.3333 20V12H33.3333V20H41.3333Z" fill="black"/>
</svg>
